<?xml version="1.0" encoding="utf-8"?>
<!-- Generator: Adobe Illustrator 17.0.0, SVG Export Plug-In . SVG Version: 6.00 Build 0)  -->
<!DOCTYPE svg PUBLIC "-//W3C//DTD SVG 1.1//EN" "http://www.w3.org/Graphics/SVG/1.1/DTD/svg11.dtd">
<svg version="1.1" id="Layer_1" xmlns="http://www.w3.org/2000/svg" xmlns:xlink="http://www.w3.org/1999/xlink" x="0px" y="0px"
	 width="1280px" height="250px" viewBox="0 0 1280 250" enable-background="new 0 0 1280 250" xml:space="preserve">
<g opacity="0.9">
	<defs>
		<rect id="SVGID_1_" opacity="0.9" width="1279" height="250"/>
	</defs>
	<clipPath id="SVGID_2_">
		<use xlink:href="#SVGID_1_"  overflow="visible"/>
	</clipPath>
	<g clip-path="url(#SVGID_2_)">
		<g>
			<rect x="-27.152" y="-14.8" fill="#A80B00" width="61.863" height="12.597"/>
			<rect x="34.711" y="-14.8" fill="#A40800" width="92.996" height="12.597"/>
			<rect x="127.707" y="-14.8" fill="#EC1400" width="93.002" height="12.597"/>
			<rect x="220.709" y="-14.8" fill="#F21E00" width="92.996" height="12.597"/>
			<rect x="313.706" y="-14.8" fill="#F73200" width="92.996" height="12.597"/>
			<rect x="406.702" y="-14.8" fill="#F95E00" width="93.002" height="12.597"/>
			<rect x="499.704" y="-14.8" fill="#F96700" width="93.001" height="12.597"/>
			<rect x="592.705" y="-14.8" fill="#FEB502" width="92.996" height="12.597"/>
			<rect x="685.702" y="-14.8" fill="#FFC202" width="92.996" height="12.597"/>
			<rect x="778.698" y="-14.8" fill="#FFC802" width="93.002" height="12.597"/>
			<rect x="871.7" y="-14.8" fill="#FFD002" width="92.996" height="12.597"/>
			<rect x="964.696" y="-14.8" fill="#FFD701" width="92.996" height="12.597"/>
			<rect x="1057.693" y="-14.8" fill="#FCD801" width="92.996" height="12.597"/>
			<rect x="1150.689" y="-14.8" fill="#ECE822" width="93.002" height="12.597"/>
			<rect x="1243.691" y="-14.8" fill="#D8E830" width="69.223" height="12.597"/>
			<rect x="-27.152" y="-2.203" fill="#F62500" width="61.863" height="63.025"/>
			<rect x="34.711" y="-2.203" fill="#F62500" width="92.996" height="63.025"/>
			<rect x="127.707" y="-2.203" fill="#F63900" width="93.002" height="63.025"/>
			<rect x="220.709" y="-2.203" fill="#F84800" width="92.996" height="63.025"/>
			<rect x="313.706" y="-2.203" fill="#F75101" width="92.996" height="63.025"/>
			<rect x="406.702" y="-2.203" fill="#F64600" width="93.002" height="63.025"/>
			<rect x="499.704" y="-2.203" fill="#FF9102" width="93.001" height="63.025"/>
			<rect x="592.705" y="-2.203" fill="#FF9C02" width="92.996" height="63.025"/>
			<rect x="685.702" y="-2.203" fill="#FFA602" width="92.996" height="63.025"/>
			<rect x="778.698" y="-2.203" fill="#FFB901" width="93.002" height="63.025"/>
			<rect x="871.7" y="-2.203" fill="#FFE319" width="92.996" height="63.025"/>
			<rect x="964.696" y="-2.203" fill="#FFE719" width="92.996" height="63.025"/>
			<rect x="1057.693" y="-2.203" fill="#FFEA19" width="92.996" height="63.025"/>
			<rect x="1150.689" y="-2.203" fill="#FFEE19" width="93.002" height="63.025"/>
			<rect x="1243.691" y="-2.203" fill="#E9EA26" width="69.223" height="63.025"/>
			<rect x="-27.152" y="60.821" fill="#F84C03" width="61.863" height="63.018"/>
			<rect x="34.711" y="60.821" fill="#FA5703" width="92.996" height="63.018"/>
			<rect x="127.707" y="60.821" fill="#FA6203" width="93.002" height="63.018"/>
			<rect x="220.709" y="60.821" fill="#FB6D02" width="92.996" height="63.018"/>
			<rect x="313.706" y="60.821" fill="#FFB919" width="92.996" height="63.018"/>
			<rect x="406.702" y="60.821" fill="#FFAB10" width="93.002" height="63.018"/>
			<rect x="499.704" y="60.821" fill="#FF9E07" width="93.001" height="63.018"/>
			<rect x="592.705" y="60.821" fill="#FFC119" width="92.996" height="63.018"/>
			<rect x="685.702" y="60.821" fill="#FFC819" width="92.996" height="63.018"/>
			<rect x="778.698" y="60.821" fill="#FFCE19" width="93.002" height="63.018"/>
			<rect x="-27.152" y="123.839" fill="#FD9C1D" width="61.863" height="63.021"/>
			<rect x="34.711" y="123.839" fill="#FD9C1D" width="92.996" height="63.021"/>
			<rect x="127.707" y="123.839" fill="#FD9D1D" width="93.002" height="63.021"/>
			<rect x="220.709" y="123.839" fill="#FFB019" width="92.996" height="63.021"/>
			<rect x="313.706" y="123.839" fill="#FFF3D1" width="92.996" height="63.021"/>
			<rect x="-27.152" y="186.86" fill="#FF951A" width="61.863" height="63.025"/>
			<rect x="34.711" y="186.86" fill="#FF9E1D" width="92.996" height="63.025"/>
		</g>
		<g>
			<rect x="-27.152" y="-14.8" fill="#A80B00" width="55.065" height="14.904"/>
			<rect x="27.913" y="-14.8" fill="#A40800" width="94.355" height="14.904"/>
			<rect x="122.268" y="-14.8" fill="#EC1400" width="94.355" height="14.904"/>
			<rect x="216.623" y="-14.8" fill="#F21E00" width="94.366" height="14.904"/>
			<rect x="310.988" y="-14.8" fill="#F73200" width="94.35" height="14.904"/>
			<rect x="405.338" y="-14.8" fill="#F95E00" width="94.366" height="14.904"/>
			<rect x="499.704" y="-14.8" fill="#F96700" width="94.36" height="14.904"/>
			<rect x="594.064" y="-14.8" fill="#FEB502" width="94.355" height="14.904"/>
			<rect x="688.419" y="-14.8" fill="#FFC202" width="94.36" height="14.904"/>
			<rect x="782.779" y="-14.8" fill="#FFC802" width="94.355" height="14.904"/>
			<rect x="877.134" y="-14.8" fill="#FFD002" width="94.36" height="14.904"/>
			<rect x="971.495" y="-14.8" fill="#FFD701" width="94.36" height="14.904"/>
			<rect x="1065.855" y="-14.8" fill="#FCD801" width="94.355" height="14.904"/>
			<rect x="1160.21" y="-14.8" fill="#ECE822" width="94.36" height="14.904"/>
			<rect x="1254.571" y="-14.8" fill="#D8E830" width="58.343" height="14.904"/>
			<rect x="-27.152" y="0.104" fill="#F62500" width="55.065" height="63.94"/>
			<rect x="27.913" y="0.104" fill="#F62500" width="94.355" height="63.94"/>
			<rect x="122.268" y="0.104" fill="#F63900" width="94.355" height="63.94"/>
			<rect x="216.623" y="0.104" fill="#F84800" width="94.366" height="63.94"/>
			<rect x="310.988" y="0.104" fill="#F75101" width="94.35" height="63.94"/>
			<rect x="405.338" y="0.104" fill="#F64600" width="94.366" height="63.94"/>
			<rect x="499.704" y="0.104" fill="#FF9102" width="94.36" height="63.94"/>
			<rect x="594.064" y="0.104" fill="#FF9C02" width="94.355" height="63.94"/>
			<rect x="688.419" y="0.104" fill="#FFA602" width="94.36" height="63.94"/>
			<rect x="782.779" y="0.104" fill="#FFB901" width="94.355" height="63.94"/>
			<rect x="877.134" y="0.104" fill="#FFE319" width="94.36" height="63.94"/>
			<rect x="971.495" y="0.104" fill="#FFE719" width="94.36" height="63.94"/>
			<rect x="1065.855" y="0.104" fill="#FFEA19" width="94.355" height="63.94"/>
			<rect x="1160.21" y="0.104" fill="#FFEE19" width="94.36" height="63.94"/>
			<rect x="1254.571" y="0.104" fill="#E9EA26" width="58.343" height="63.94"/>
			<rect x="-27.152" y="64.044" fill="#F84C03" width="55.065" height="63.944"/>
			<rect x="27.913" y="64.044" fill="#FA5703" width="94.355" height="63.944"/>
			<rect x="122.268" y="64.044" fill="#FA6203" width="94.355" height="63.944"/>
			<rect x="216.623" y="64.044" fill="#FB6D02" width="94.366" height="63.944"/>
			<rect x="310.988" y="64.044" fill="#FFB919" width="94.35" height="63.944"/>
			<rect x="405.338" y="64.044" fill="#FFAB10" width="94.366" height="63.944"/>
			<rect x="499.704" y="64.044" fill="#FF9E07" width="94.36" height="63.944"/>
			<rect x="594.064" y="64.044" fill="#FFC119" width="94.355" height="63.944"/>
			<rect x="688.419" y="64.044" fill="#FFC819" width="94.36" height="63.944"/>
			<rect x="782.779" y="64.044" fill="#FFCE19" width="94.355" height="63.944"/>
			<rect x="-27.152" y="127.988" fill="#FD9C1D" width="55.065" height="63.951"/>
			<rect x="27.913" y="127.988" fill="#FD9C1D" width="94.355" height="63.951"/>
			<rect x="122.268" y="127.988" fill="#FD9D1D" width="94.355" height="63.951"/>
			<rect x="216.623" y="127.988" fill="#FFB019" width="94.366" height="63.951"/>
			<rect x="310.988" y="127.988" fill="#FFF3D1" width="94.35" height="63.951"/>
			<rect x="-27.152" y="191.938" fill="#FF951A" width="55.065" height="63.937"/>
			<rect x="27.913" y="191.938" fill="#FF9E1D" width="94.355" height="63.937"/>
		</g>
	</g>
</g>
<path opacity="0.04" fill="#272525" d="M981.577,184.636c-1.764,0.162-3.519,0.349-5.263,0.562
	c-7.929,0.971-15.488,2.884-20.441,5.832c-10.348,6.159,0.436,9.12,7.211,13.014c0.535,0.307,1.085,0.628,1.369,1.044
	c0.224,0.328,0.266,0.693,0.271,1.049c0.168,10.568-20.328,7.891-30.658,11.017c-5.849,1.77-9.91,5.055-8.185,8.129
	c3.786,6.747,23.983,6.911,35.942,7.144c53.834,1.05,107.813,2.297,161.349-1.243c11.546-0.763,23.024-1.727,34.521-2.626
	c5.261-0.411,11.846-1.482,11.867-3.883c0.015-1.672-3.459-2.918-6.882-3.571c-5.996-1.143-13.823-2.137-12.689-5.875
	c0.413-1.364,2.365-2.615,5.076-3.254c2.094-0.494,4.502-0.624,6.772-0.921c2.27-0.297,4.597-0.843,5.551-1.816
	c2.57-2.619-3.902-4.178-8.458-4.417c-5.456-0.286-9.905-2.128-8.024-4.905c1.31-1.935,5.575-3.244,6.872-5.18
	c0.522-0.78,0.521-1.619,0.173-2.419c-1.014-2.328-4.885-4.25-9.455-5.434c-4.57-1.185-9.809-1.728-14.997-2.156
	c-20.312-1.677-41.082-1.826-61.733-1.798c-16.504,0.023-33.006,0.156-49.501,0.399
	C1008.665,183.529,994.86,183.412,981.577,184.636z"/>
<g>
	<g>
		<path fill="#698178" d="M995.597,59.35l-42.639-3.541c-0.164-0.014-0.309,0.125-0.324,0.309l-2.61,33.293
			c-0.014,0.184,0.107,0.345,0.271,0.358l9.638,0.8l5.866,10.101c0.171,0.295,0.609,0.193,0.641-0.149l0.869-9.339l16.669,1.384
			c5.111,0.424,9.618-3.878,10.068-9.609l1.823-23.248C995.883,59.524,995.762,59.364,995.597,59.35z"/>
		<g>
			<polygon fill="#FFFFF3" points="989.786,65.606 963.226,63.4 963.316,62.261 989.876,64.467 			"/>
			<polygon fill="#FFFFF3" points="989.106,74.291 957.427,71.66 957.517,70.521 989.195,73.152 			"/>
			<polygon fill="#FFFFF3" points="988.425,82.976 956.746,80.345 956.836,79.206 988.514,81.837 			"/>
		</g>
	</g>
	<g>
		<g>
			<path fill="#59595B" d="M973.597,103.307c-0.544,1.681,0.243,3.474,0.935,5.006c0.613,1.359,0.826,2.253-0.73,2.62
				c-0.877,0.207-2.433,0.592-3.202-0.099c-0.582-0.523-0.255-2.14,0.028-2.782c0.216-0.49,0.789-0.739,0.993-1.235
				c0.084-0.204,0.096-0.432,0.099-0.654c0.012-0.906-0.11-1.815-0.36-2.684c-0.17-0.59-0.4-1.17-0.452-1.783
				c-0.074-0.889,0.537-1.926,0.858-2.743c0.597-1.52,2.677-3.56,4.418-2.366c0.396,0.272,0.627,0.731,0.82,1.179
				c0.115,0.268,0.225,0.547,0.228,0.84c0.013,1.167-1.022,1.364-1.737,1.92C974.613,101.211,973.945,102.234,973.597,103.307z"/>
			<path fill="#EACDB0" d="M976.909,109.868c-1.51-0.366-2.691-1.671-3.258-3.158c-0.567-1.486-0.597-3.134-0.44-4.723
				c0.522-5.287,6.912-4.947,9.075-0.895C984.171,104.623,981.3,110.932,976.909,109.868z"/>
			<path fill="#59595B" d="M981.831,103.581c0.065,0.826-0.356,1.745,0.085,2.439c0.197,0.309,0.526,0.494,0.805,0.727
				c0.761,0.635,1.156,1.705,0.996,2.701c1.608-0.064,3.216-0.128,4.824-0.191c0.242-0.01,0.497-0.023,0.704-0.152
				c0.444-0.277,0.467-0.918,0.438-1.451c-0.057-1.049-0.14-2.173-0.775-2.996c-0.294-0.382-0.69-0.671-0.983-1.054
				c-1.41-1.84-0.031-5.072-1.747-6.612c-0.766-0.687-1.877-0.738-2.816-1.138c-1.637-0.697-2.713-2.444-4.391-3.031
				c-3.168-1.108-6.238,2.869-4.36,5.774C976.143,100.966,981.57,100.253,981.831,103.581z"/>
		</g>
	</g>
	<g>
		<g>
			<polygon fill="#59595B" points="995.41,153.857 991.616,178.579 990.788,196.473 987.973,197.325 984.165,180.283
				980.649,149.859 			"/>
		</g>
		<polygon fill="#59595B" points="987.973,197.836 987.642,199.711 988.304,203.289 990.622,203.119 991.119,197.836
			990.788,196.984 		"/>
	</g>
	<g>
		<polygon fill="#59595B" points="970.727,159.397 976.972,203.376 979.811,203.376 981.604,179.388 985.488,155.399 		"/>
		<polygon fill="#59595B" points="977.025,202.868 973.369,205.233 973.801,207.039 980.46,205.685 979.949,203.078 		"/>
	</g>
	<g>
		<path fill="#E8CBAE" d="M983.816,109.976c0.063,0.014,0.125,0.029,0.188,0.044c2.974,0.72,5.755,5.115,7.356,7.702
			c2.266,3.659,3.767,7.744,5.323,11.756c4.625,11.919,9.891,23.301,15.424,34.803c1.848,3.841-16.232,4.389-18.026,4.511
			c-6.37,0.435-12.754,0.637-19.138,0.607c-2.913-0.014-5.919,0.159-8.745-0.518c-0.61-0.146-7.423-2.382-6.948-3.245
			c1.363-2.48,3.789-5.29,3.988-8.057c0.226-3.13,0.707-6.233,1.184-9.33c0.928-6.018,1.665-12.066,2.532-18.093
			c0.463-3.214,0.808-6.448,1.388-9.644c0.285-1.573,0.405-3.229,0.923-4.747c0.596-1.748,1.723-2.369,3.104-3.517
			c0.473-0.393,0.95-0.788,1.486-1.085C976.682,109.598,980.689,109.27,983.816,109.976z"/>
		<g>
			<polygon fill="#EBCEB1" points="993.818,89.767 992.601,86.621 991.272,87.098 991.642,89.442 990.912,89.367 992.272,91.929
				993.718,91.625 			"/>
			<polygon fill="#E8CBAE" points="981.019,110.498 993.369,106.303 991.529,91.22 994.429,90.769 1000.436,108.081
				990.953,120.723 			"/>
		</g>
		<g>
			<polygon fill="#EBCEB1" points="961.541,99.322 962.112,95.988 963.508,96.177 963.608,98.55 964.308,98.324 963.482,101.116
				962.006,101.121 			"/>
			<polygon fill="#E8CBAE" points="974.064,112.032 965.123,112.032 964.07,100.267 961.141,100.431 957.506,117.144
				969.759,127.881 			"/>
		</g>
	</g>
	<g>
		<polygon fill="#B99A6F" points="982.295,142.365 979.192,141.239 979.602,139.854 981.892,140.14 981.791,139.392
			984.332,140.688 984.095,142.187 		"/>
		<path fill="#FFFFF0" d="M1007.085,131.629c-0.167,0.075-0.331,0.169-0.491,0.285c-1.111,0.806-2.071,2.346-2.987,3.378
			c-1.759,1.982-3.518,3.963-5.277,5.945l-14.717-1.285l-0.322,3.001l17.049,5.481c2.344-1.684,4.689-3.369,7.033-5.053
			c1.508-1.083,3.282-2.071,4.647-3.339c1.735-1.612,1.329-4.266-0.048-6.217C1010.821,132.192,1008.799,130.862,1007.085,131.629z"
			/>
	</g>
	<g>
		<polygon fill="#59595B" points="1103.217,155.829 1102.72,174.183 1098.326,205.131 1094.946,205.131 1092.812,176.575
			1088.812,152.251 		"/>
		<polygon fill="#426362" points="1094.966,206.598 1098.62,208.479 1100.447,206.598 1098.358,204.773 1095.017,205.135 		"/>
	</g>
	<g>
		<polygon fill="#59595B" points="1080.808,151.885 1080.742,165.771 1084.934,206.836 1088.313,206.836 1092.053,179.569
			1095.071,149.723 		"/>
		<polygon fill="#426362" points="1088.293,208.302 1084.639,210.183 1082.812,208.302 1084.997,206.583 1088.337,206.583 		"/>
	</g>
	<g>
		<polygon fill="#A16652" points="1023.308,200.162 1022.954,202.445 1027.035,205.456 1029.607,203.538 1027.743,200.891
			1023.662,197.88 		"/>
		<polygon fill="#2E4661" points="1027.03,130.119 1025.955,137.051 1030.275,168.565 1023.19,199.389 1027.448,201.017
			1043.518,164.818 1044.915,153.544 1044.318,129.986 		"/>
	</g>
	<g>
		<polygon fill="#2E4661" points="1054.534,132.707 1054.865,162.208 1049.464,200.246 1045.31,200.246 1042.687,165.148
			1037.004,130.05 		"/>
		<polygon fill="#A16652" points="1045.334,202.049 1049.826,204.36 1052.071,202.049 1049.826,199.737 1045.334,199.737 		"/>
	</g>
	<g>
		<g>
			<polygon fill="#363636" points="1025.405,215.739 1025.816,217.521 1022.762,220.149 1020.619,218.788 1021.941,216.583
				1024.995,213.956 			"/>
			<polygon fill="#A8C1CB" points="1018.282,160.237 1019.529,165.651 1017.916,190.822 1025.278,214.758 1022.006,216.303
				1007.234,188.662 1005.485,179.836 1004.61,161.178 			"/>
		</g>
		<g>
			<polygon fill="#A8C1CB" points="996.69,163.948 998.115,187.287 1004.56,217.027 1007.843,216.775 1007.909,188.873
				1010.395,160.786 			"/>
			<polygon fill="#363636" points="1007.927,218.202 1004.509,220.301 1002.602,218.61 1004.244,216.647 1007.795,216.375 			"/>
		</g>
	</g>
	<g>
		<g>
			<polygon fill="#363636" points="1064.01,217.925 1063.977,219.374 1061.01,220.759 1059.575,219.277 1061.075,217.86
				1064.042,216.475 			"/>
			<polygon fill="#6E6358" points="1069.604,174.275 1065.63,178.325 1063.134,197.621 1064.174,217.461 1061.25,217.972
				1055.046,193.773 1055.434,186.655 1058.504,172.189 			"/>
		</g>
		<g>
			<polygon fill="#6E6358" points="1045.877,176.048 1047.052,194.516 1052.365,218.05 1055.073,217.851 1055.128,195.772
				1057.177,173.546 			"/>
			<polygon fill="#363636" points="1055.113,218.343 1055.142,218.979 1052.323,220.64 1050.751,219.302 1052.106,217.749
				1055.033,217.534 			"/>
		</g>
	</g>
	<g>
		<path fill="#EACDB0" d="M1041.49,98.311c-1.291,0.098-2.582,0.195-3.873,0.293c-0.189-1.044-0.297-2.105-0.323-3.167
			c-1.122-0.193-2.442-0.549-2.818-1.654c-0.119-0.348-0.12-0.725-0.121-1.094c-0.002-1.525-0.003-3.05-0.005-4.576
			c0-0.527,0.002-1.071,0.198-1.558c0.345-0.855,1.209-1.357,2.056-1.669c2.161-0.797,4.672-0.735,6.653,0.458
			c0.527,0.317,1.024,0.723,1.325,1.27c0.464,0.843,0.398,1.877,0.319,2.843c-0.073,0.891-0.147,1.783-0.22,2.674
			c-0.084,1.025-0.257,2.205-1.113,2.737c-0.454,0.282-1.039,0.328-1.432,0.696C1041.444,96.214,1041.75,97.386,1041.49,98.311z"/>
		<path fill="#3A3029" d="M1051.851,81.243c0.156-0.409,0.332-0.808,0.539-1.19c0.449-0.827,1.048-1.575,1.371-2.461
			c0.324-0.887,0.301-2.006-0.376-2.649c-0.437-0.414-1.055-0.55-1.645-0.62c-1.945-0.229-3.948,0.09-5.734,0.915
			c-1.701,0.785-3.164,1.842-5.072,1.475c-1.793-0.346-2.964,0.136-4.615,1.097c-1.786,1.04-4.314,1.663-5.871,2.959
			c-0.65,0.541-1.116,1.288-1.443,2.08c-1.134,2.743-0.568,6.144,1.388,8.342c0.439,0.493,0.938,0.926,1.454,1.333
			c1.068,0.842,2.352,1.888,3.65,2.038c-0.163-1.143-1.776-4.55-1.085-5.635c1.097-1.721,4.231-1.75,5.964-1.685
			c1.89,0.071,3.74,1.109,5.595,1.069c1.335-0.029,2.884-0.982,3.873-1.872C1051.067,85.34,1051.281,82.735,1051.851,81.243z"/>
	</g>
	<g>
		<polygon fill="#EACDB0" points="1060.687,88.777 1061.255,86.498 1060.202,84.73 1060.453,84.309 1060.968,84.606
			1060.502,82.881 1061.078,81.554 1062.92,81.17 1064.658,82.061 1064.835,83.983 1063.905,86.071 1063.259,89.225 		"/>
		<polygon fill="#B1CFDF" points="1059.818,86.348 1057.843,101.073 1041.271,97.512 1047.196,110.803 1063.63,109.047
			1064.146,87.447 		"/>
	</g>
	<g>
		<polygon fill="#EACDB0" points="1021.621,87.227 1021.193,84.902 1022.361,83.196 1022.135,82.758 1021.6,83.022 1022.175,81.32
			1021.679,79.95 1019.854,79.443 1018.054,80.223 1017.756,82.141 1018.56,84.299 1019.012,87.507 		"/>
		<polygon fill="#B1CFDF" points="1022.396,85.724 1023.599,99.415 1036.116,98.926 1031.039,112.014 1016.554,106.352
			1017.728,84.959 		"/>
	</g>
	<path fill="#B1CFDF" d="M1023.214,138.526c-0.057,2.692,0.025,6.319,1.03,6.452c0.188,0.025,0.369-0.071,0.533-0.163
		c1.737-0.976,2.966-2.35,4.679-3.293c1.795-0.989,3.848-1.514,5.862-1.882c3.011-0.566,6.089-0.917,9.157-0.973
		c3.331-0.06,9.816,0.615,9.816,0.615c1.872-0.324,3.661-0.988,5.455-1.603c3.081-1.058,6.228-1.99,9.12-3.471
		c0.928-0.475,3.487-1.88,2.573-3.152c-0.693-0.963-3.045-1.607-4.105-2.199c-2.368-1.321-4.645-2.829-6.649-4.64
		c-2.849-2.574-4.951-5.732-6.267-9.288c-0.664-1.795-1.143-3.651-1.539-5.518c-0.214-1.011-0.402-2.028-0.578-3.046
		c-0.1-0.578-0.099-2.766-0.51-3.129c-4.164-3.682-5.39-6.909-10.432-6.106c-11.505,1.833-10.69,2.359-13.257,8.161
		c-1.032,2.333-2.431,8.598-2.826,11.106c-0.478,3.038-0.92,6.082-1.265,9.137c-0.384,3.409-0.648,6.834-0.704,10.265
		C1023.3,136.18,1023.241,137.247,1023.214,138.526z"/>
	<path fill="#8C9498" d="M1098.084,110.498l-11.33-1.291c0,0-5.061,0.774-9.036,15.095c-3.976,14.321-2.98,43.457-2.98,43.457
		s28.615-4.203,33.116-5.113l-3.146-26.415L1098.084,110.498z"/>
	<path fill="#F6F6EA" d="M1016.338,130.394c2.082,0.737,3.868,2.087,4.949,4.644c0.941,2.227,1.159,4.718,1.364,7.155
		c0.584,6.978,0.473,14.582,2.475,21.332c0.87,2.934,1.758,4.698,1.324,7.958c-0.118,0.89-2.793,9.039-2.779,9.05
		c-2.653-2.082-5.985-3.23-9.322-3.214c-2.992,0.015-23.07,4.637-25.044,1.308c-0.43-0.725,3.567-10.188,3.969-11.591
		c1.323-4.606,2.645-9.212,3.982-13.814c1.478-5.109,2.97-10.238,5.183-15.057c0.748-1.63,1.578-3.221,2.484-4.765
		c0.572-0.975,1.778-3.806,2.843-4.216c0.879-0.339,2.823,0.274,3.788,0.35C1013.171,129.66,1014.796,129.848,1016.338,130.394z"/>
	<g>
		<path fill="#B99A6F" d="M1018.001,120.731c-1.665-4.563-8.283-5.906-9.6-0.471c-0.396,1.633-0.606,3.357-0.231,4.996
			c0.375,1.639,1.416,3.183,2.938,3.799c0.009,0.004,0.017,0.006,0.026,0.01c-0.042,0.431-0.084,0.862-0.126,1.293
			c-0.009,0.093-0.016,0.195,0.038,0.27c0.061,0.086,0.175,0.104,0.278,0.116c0.5,0.056,1,0.112,1.5,0.168
			c0.248,0.028,0.506,0.054,0.74-0.033c0.513-0.192,0.704-0.842,0.705-1.403c0-0.134-0.006-0.27-0.013-0.405
			C1017.157,127.913,1019.09,123.714,1018.001,120.731z"/>
		<g>
			<path fill="#483D3F" d="M1008.323,113.541c-1.214,0-2.055,1.34-3.062,2.131c-0.837,0.657-1.852,0.953-2.735,1.527
				c-0.883,0.574-1.683,1.612-1.541,2.737c-1.032-0.367-2.146-0.734-3.188-0.357c-1.043,0.377-1.849,1.848-1.264,2.87
				c0.523,0.915,1.791,0.956,2.34,1.851c0.868,1.417-0.548,4.039,0.796,4.862c0.323,0.198,0.723,0.196,1.042,0.402
				c0.396,0.255,0.586,0.769,0.81,1.217c1.018,2.031,3.315,3.108,5.343,2.506c1.197-0.817,2.038-2.256,2.286-3.794
				c0.299-1.854-0.71-2.331-1.105-3.967c-0.431-1.789-0.148-3.796,0.759-5.375c0.59-1.027,1.51-1.976,2.586-2.25
				c0.438-0.111,0.353,0.291,0.802-0.139c0.193-0.185,0.402-0.803,0.423-1.088C1011.277,115.866,1009.921,113.541,1008.323,113.541z
				"/>
			<path fill="#483D3F" d="M1021.513,113.929c0.638,0.082,1.3-0.046,1.922,0.129c0.934,0.262,1.016,1.207,1.382,1.983
				c0.405,0.859,0.979,2.008,1.658,2.62c0.489,0.441,1.113,0.64,1.676,0.953c0.563,0.312,1.112,0.816,1.203,1.52
				c0.086,0.667-0.263,1.331-0.23,2.006c0.066,1.003,0.305,1.485,0.155,2.543c-0.078,0.546-0.169,1.126-0.499,1.541
				c-0.435,0.547-1.151,0.647-1.795,0.635c-0.644-0.012-1.319-0.092-1.908,0.217c-1.277,0.671-0.824,2.031-1.012,3.258
				c-0.287,1.867-2.146,3.215-3.775,2.816c-1.381-0.339-2.361-1.781-2.524-3.328c-0.082-0.774,0.113-1.538,0.023-2.312
				c-0.086-0.746-0.642-1.714-0.073-2.403c0.139-0.168,0.332-0.275,0.452-0.461c0.097-0.15,0.135-0.337,0.15-0.521
				c0.051-0.636-0.177-1.285-0.597-1.702c-0.302-0.299-0.7-0.491-0.914-0.875c-0.245-0.44-0.183-1.008-0.228-1.529
				c-0.107-1.259-0.948-2.382-2.027-2.71c-0.712-0.216-1.339-0.312-1.99-0.706c-0.099-0.06-1.597-1.062-1.594-0.796
				c-0.006-0.462,0.194-0.898,0.402-1.301c0.342-0.663,0.733-1.317,1.284-1.767c1.782-1.455,2.264,1.22,3.777,0.627
				c0.365-0.143,0.598-0.542,0.907-0.807c0.584-0.499,1.392-0.477,2.092-0.276C1020.129,113.483,1020.794,113.837,1021.513,113.929z
				"/>
		</g>
	</g>
	<g>
		<path fill="#E3C6AB" d="M1096.599,96.926c-2.581-0.878-5.245-1.702-7.943-1.442c-0.591,0.057-1.233,0.199-1.598,0.68
			c-0.141,0.186-0.229,0.41-0.311,0.631c-0.922,2.482-2.145,6.176-0.747,8.7c0.267,0.481,0.649,0.881,1.07,1.218
			c0.562,0.45,1.201,0.783,1.875,0.995c-0.206,0.62-0.465,1.22-0.776,1.791c1.31,0.189,2.621,0.378,3.931,0.568
			c0.107-0.775,0.214-1.55,0.32-2.326c0.358-0.106,0.706-0.245,1.039-0.423c1.287-0.69,2.204-1.846,2.804-3.184
			c0.653-1.457,1.502-2.818,2.115-4.309c0.223-0.543,0.419-1.169,0.182-1.706c-0.251-0.572-0.892-0.825-1.47-1.023
			C1096.927,97.037,1096.763,96.981,1096.599,96.926z"/>
		<path fill="#514943" d="M1087.664,97.457c1.391-0.726,3.386-0.891,4.605-0.67c3.683,0.668,4.763,3.616,4.611,7.148
			c1.155-1.229,3.241-2.709,3.529-4.417c0.235-1.398,0.237-3.339-0.408-4.636c-0.604-1.214-2.376-2.033-3.401-2.807
			c-0.966-0.73-1.933-1.46-2.899-2.191c-0.201-0.152-0.408-0.307-0.648-0.376c-0.284-0.082-0.586-0.037-0.877,0.008
			c-2.495,0.39-4.989,0.78-7.484,1.17c-0.479,0.075-1.029,0.2-1.247,0.646c-0.133,0.271-0.103,0.593-0.069,0.894
			c0.146,1.328,0.544,2.711,0.544,4.04c0.072,0.78,0.125,4.743,1.484,4.43c0.451-0.609,0.588-1.403,0.958-2.067
			C1086.635,98.138,1087.1,97.751,1087.664,97.457z"/>
	</g>
	<g>
		<polygon fill="#EBCEB1" points="1106.399,148.086 1106.445,152.154 1104.757,152.251 1104.126,149.472 1103.348,149.899
			1103.72,146.413 1105.462,146.069 		"/>
		<path fill="#8C9498" d="M1094.833,115.202c-0.008,2.573,1.202,5.431,1.781,7.587c0.652,2.429,1.319,4.854,1.957,7.287
			c0.002,0.007,4.524,17.254,4.524,17.254l3.404,0.94l-0.52-20.124c-0.738-4.695-0.867-10.051-3.269-14.233
			c-0.68-1.183-1.541-2.321-2.737-2.932c-1.196-0.611-2.787-0.565-3.728,0.41C1095.207,112.469,1094.837,113.793,1094.833,115.202z"
			/>
	</g>
	<g>
		<polygon fill="#363636" points="1108.715,218.314 1108.543,220.155 1104.922,221.752 1103.369,219.789 1105.565,217.8
			1108.729,217.438 		"/>
		<polygon fill="#8C9498" points="1111.564,180.819 1108.776,217.553 1105.286,218.041 1102.398,186.732 1100.01,176.8 		"/>
	</g>
	<g>
		<polygon fill="#8C9498" points="1122.59,193.492 1115.777,214.986 1112.566,214.546 1114.973,192.81 1111.662,180.881
			1123.749,179.347 		"/>
		<polygon fill="#363636" points="1112.396,216.01 1115.626,218.358 1117.604,216.722 1116.11,214.612 1112.638,214.137 		"/>
	</g>
	<g>
		<path fill="#EACDB0" d="M1128.226,120.697c0.134-0.572,0.267-1.143,0.401-1.715c-0.27-0.438-0.539-0.876-0.809-1.314
			c0.061-0.106,0.122-0.212,0.183-0.318c0.13,0.072,0.26,0.144,0.389,0.217c-0.123-0.429-0.245-0.859-0.368-1.288
			c0.14-0.334,0.278-0.668,0.418-1.001c0.459-0.103,0.918-0.206,1.376-0.309c0.437,0.216,0.875,0.432,1.312,0.648
			c0.05,0.476,0.104,0.966,0.152,1.434c-0.204,0.6-0.477,0.954-0.664,1.612c-0.187,0.658-0.29,1.619-0.46,2.335
			C1129.516,120.907,1128.869,120.796,1128.226,120.697z"/>
		<path fill="#CBCCCE" d="M1127.547,118.886c-0.818,2.295-1.668,4.584-2.313,6.939c-0.399,1.458-0.228,5.023-2.317,4.541
			c-2.355-0.544-4.71-1.088-7.065-1.631c-0.408-0.094-0.823-0.189-1.24-0.159c-2.416,0.172-2.143,3.421-1.906,5.16
			c0.136,1,0.311,1.994,0.524,2.98c0.119,0.548,0.264,1.123,0.65,1.521c0.461,0.475,1.158,0.591,1.807,0.663
			c2.71,0.302,5.454,0.277,8.158-0.069c1.427-0.182,2.846-0.451,4.239-0.815c1.491-0.389,1.463-0.683,1.519-2.213
			c0.197-5.394,1.149-10.74,1.2-16.142C1129.718,119.402,1128.633,119.145,1127.547,118.886z"/>
	</g>
	<path fill="#F1F1F1" d="M1041.165,140.813c-3.712,6.843-3.781,14.814-2.548,22.328c1.234,7.514,0.398,15.424,2.672,22.285
		c8.152,1.013,18.517,1.46,26.742,1.154c2.003-6.957,2.548-14.787,3.228-21.941s1.448-13.697-1.592-20.351
		c-1.775-3.886-6.621-14.171-12.042-14.815C1050.925,128.677,1043.676,136.184,1041.165,140.813z"/>
	<g>
		<path fill="#EACDB0" d="M1056.964,115.216c-2.902-0.763-5.42,0.488-6.537,3.365c-1.626,4.187,0.81,8.948,3.874,10.16
			c0.042,0.467,0.084,0.934,0.126,1.401c0.009,0.096,0.02,0.199,0.083,0.27c0.055,0.063,0.14,0.089,0.22,0.109
			c0.843,0.209,1.755,0.11,2.536-0.278c-0.143-0.463-0.235-0.942-0.276-1.426c1.187-0.431,2.324-1.536,3.227-3.536
			C1061.983,121.366,1061.638,116.445,1056.964,115.216z"/>
		<g>
			<path fill="#363636" d="M1051.411,126.207c-2.457,0.317-2.936-2.347-3.036-4.278c-0.142-2.727-0.453-4.889,1.643-7.049
				c2.846-2.934,7.769-3.224,10.682-0.2c0.996,1.034,1.463,2.491,1.707,3.925c0.409,2.407,0.236,5.035-1.09,7.063
				c-0.796,1.217-2.493,2.329-2.359,0.154c0.099-1.612,1.525-2.856,1.169-4.583c-0.063-0.308-0.194-0.616-0.435-0.809
				c-0.518-0.414-1.299-0.153-1.896-0.431c-1.183-0.55-1.611-2.775-3.356-1.869c-0.883,0.458-2.756,2.821-3.127,3.767
				c-0.399,1.02-0.112,2.177,0.235,3.217C1051.801,125.875,1051.687,126.172,1051.411,126.207z"/>
			<path fill="#363636" d="M1047.524,134.433c0.001,1.424,0.115,2.856-0.073,4.267c-0.149,1.118-0.487,2.202-0.629,3.321
				c-0.234,1.848,0.085,3.767,0.902,5.43c1.283-2.769,2.19-5.722,2.688-8.746c0.485-2.944,0.581-5.939,0.677-8.923
				c0.041-1.29-0.078-6.86-1.921-3.319C1047.926,128.854,1047.523,131.755,1047.524,134.433z"/>
			<path fill="#363636" d="M1062.761,137.609c-0.185-1.411-0.483-2.815-0.478-4.239c0.004-1.128,0.199-2.25,0.195-3.378
				c-0.006-1.864-0.57-3.722-1.595-5.259c-0.914,2.92-1.433,5.97-1.536,9.036c-0.101,2.984,0.19,5.966,0.48,8.936
				c0.125,1.284,0.962,6.789,2.332,3.027C1063.082,143.193,1063.107,140.263,1062.761,137.609z"/>
		</g>
	</g>
	<path fill="#CBCCCE" d="M1116.391,129.103l-9.339-4.581c0,0-6.002,7.046-10.79,20.741c-4.787,13.695-1.325,39.878-1.325,39.878
		s28.503,0.583,32.951,0l-6.935-36.925L1116.391,129.103z"/>
	<g>
		<g>
			<path fill="#A16652" d="M1100.734,66.875c-1.569,1.688-3.836,2.662-6.274,2.461c-2.423-0.199-4.5-1.515-5.791-3.417
				c-7.545,2.846-10.048,12.992-10.991,25.145l30.002,2.465C1108.626,81.334,1107.892,70.894,1100.734,66.875z"/>
		</g>
		<path fill="#A16652" d="M1104.672,57.778c-0.408,5.262-4.883,9.187-9.996,8.767c-5.112-0.42-8.926-5.026-8.518-10.288
			s4.883-9.187,9.996-8.767C1101.266,47.911,1105.08,52.517,1104.672,57.778z"/>
		<g>
			<path fill="#F2D042" d="M1114.06,73.861c-0.238,3.075-2.854,5.369-5.842,5.123c-2.988-0.245-5.216-2.937-4.978-6.012
				c0.238-3.075,2.854-5.369,5.842-5.123S1114.298,70.786,1114.06,73.861z"/>
			<polygon fill="#2E4661" points="1111.762,72.848 1109.529,72.664 1109.727,70.116 1108.096,69.982 1107.898,72.53
				1105.665,72.347 1105.538,73.986 1107.771,74.169 1107.573,76.717 1109.204,76.851 1109.402,74.303 1111.635,74.487 			"/>
		</g>
	</g>
	<g>
		<g>
			<g>
				<g>
					<g>
						<g>
							<polygon fill="#8E999E" points="999.67,153.342 995.972,158.078 974.066,140.492 977.765,135.756 							"/>
							<path fill="#2E4661" d="M1004.965,161.401l-0.043,0.055c-1.167,1.494-3.006,1.988-4.108,1.103l-12.685-10.025l4.266-5.713
								l12.686,10.272C1006.184,157.978,1006.132,159.907,1004.965,161.401z"/>
						</g>
					</g>
					<g>
						<path fill="#59595B" d="M980.078,117.85c7.745,6.218,9.039,17.641,2.891,25.516s-17.411,9.217-25.155,2.999
							c-7.745-6.218-9.039-17.641-2.891-25.516S972.333,111.632,980.078,117.85z"/>
						<path fill="#B1CFDF" d="M978.523,119.842c6.663,5.349,7.776,15.176,2.487,21.95s-14.978,7.929-21.64,2.58
							c-6.662-5.349-7.776-15.176-2.487-21.95C962.171,115.649,971.86,114.494,978.523,119.842z"/>
					</g>
				</g>
				<g>
					<g opacity="0.22">
						<path fill="#FFFFFF" d="M957.987,130.242c0.478-4.961,4.15-9.086,9.011-9.932c4.849-0.843,9.732,1.835,11.725,6.39
							c0.562,1.284,2.568,0.489,2.006-0.797c-2.294-5.244-7.648-8.427-13.279-7.858c-5.549,0.561-10.075,4.838-11.343,10.29
							c-0.123,0.527-0.198,1.064-0.25,1.603C955.722,131.335,957.851,131.648,957.987,130.242L957.987,130.242z"/>
					</g>
					<path opacity="0.31" fill="#FFFFFF" d="M981.681,129.182c0.613,0.492,0.715,1.396,0.229,2.02
						c-0.487,0.623-1.378,0.73-1.991,0.237c-0.613-0.492-0.715-1.396-0.229-2.02C980.176,128.796,981.068,128.69,981.681,129.182z"
						/>
				</g>
			</g>
			<path fill="#A16652" d="M988.333,152.351l4.059-5.435c0.139-0.187,0.117-0.45-0.051-0.609l-0.055-0.052
				c-0.196-0.185-0.507-0.155-0.667,0.063l-4.011,5.481c-0.15,0.205-0.105,0.495,0.099,0.643l0.007,0.005
				C987.912,152.591,988.186,152.548,988.333,152.351z"/>
			<g>
				<path fill="#6A8478" d="M983.863,133.896c-0.43,3.732-2.171,7.201-4.913,9.735c-2.708,2.502-6.246,3.915-9.894,4.029
					c-3.73,0.116-7.415-1.255-10.249-3.688c-2.761-2.369-4.59-5.751-5.154-9.369c-0.585-3.752,0.269-7.676,2.316-10.856
					c1.972-3.064,5.031-5.364,8.489-6.396c3.609-1.077,7.53-0.726,10.915,0.908c3.259,1.573,5.864,4.376,7.319,7.715
					C983.772,128.453,984.154,131.203,983.863,133.896c-0.058,0.533,0.757,0.625,0.814,0.092c0.404-3.742-0.468-7.487-2.458-10.653
					c-1.943-3.092-4.959-5.44-8.381-6.602c-3.549-1.206-7.458-1.083-10.947,0.289c-3.354,1.319-6.221,3.834-8.036,6.979
					c-1.897,3.287-2.588,7.206-1.977,10.955c0.59,3.622,2.445,6.941,5.114,9.397c2.745,2.525,6.365,3.97,10.061,4.126
					c3.665,0.155,7.297-1.018,10.245-3.229c3.56-2.671,5.866-6.815,6.379-11.261C984.739,133.455,983.924,133.364,983.863,133.896z"
					/>
			</g>
		</g>
	</g>
	<path fill="#3A6594" d="M1163.144,121.828c-2.976,0-5.551,1.802-6.748,4.402l-16.122-2.25c-0.127-3.012-1.43-5.716-3.448-7.634
		l9.115-13.559c1.067,0.467,2.241,0.726,3.472,0.726c4.907,0,8.9-4.109,8.9-9.16s-3.992-9.16-8.9-9.16c-4.907,0-8.9,4.109-8.9,9.16
		c0,2.162,0.732,4.15,1.953,5.719l-9.382,13.956c-1.109-0.4-2.301-0.618-3.541-0.618c-5.923,0-10.741,4.959-10.741,11.055
		s4.818,11.055,10.741,11.055c4.52,0,8.397-2.889,9.98-6.967l16.266,2.27c0.607,3.613,3.674,6.37,7.355,6.37
		c4.116,0,7.464-3.446,7.464-7.682C1170.608,125.274,1167.26,121.828,1163.144,121.828z"/>
	<path fill="#F2D042" d="M1056.48,125.531l7.755,16.173c0.085,0.178,0.25,0.301,0.441,0.33l17.342,2.594
		c0.48,0.072,0.672,0.679,0.324,1.028l-12.548,12.589c-0.138,0.138-0.201,0.338-0.168,0.533l2.962,17.776
		c0.082,0.492-0.42,0.868-0.849,0.635l-15.511-8.393c-0.171-0.092-0.374-0.092-0.545,0l-15.511,8.393
		c-0.429,0.232-0.931-0.143-0.849-0.635l2.962-17.776c0.033-0.195-0.03-0.395-0.168-0.533l-12.549-12.589
		c-0.347-0.349-0.156-0.956,0.324-1.028l17.342-2.594c0.191-0.029,0.355-0.152,0.441-0.33l7.755-16.173
		C1055.645,125.083,1056.265,125.083,1056.48,125.531z"/>
	<path fill="#564A70" d="M1058.664,48.699c0.028-0.259-0.232-0.477-0.464-0.477c-4.09,0.003-8.18,0.006-12.27,0.009
		c0.455-4.227,0.909-8.454,1.364-12.68c0.027-0.256-0.232-0.481-0.464-0.477c-1.906,0.034-3.811,0.068-5.717,0.103
		c-0.274,0.005-0.435,0.215-0.464,0.477c-0.454,4.194-0.908,8.388-1.362,12.582c-2.678,0.002-5.356,0.004-8.034,0.006
		c0.464-4.31,0.927-8.621,1.391-12.931c0.027-0.256-0.232-0.481-0.464-0.477c-1.906,0.034-3.811,0.068-5.717,0.103
		c-0.274,0.005-0.435,0.215-0.464,0.477c-0.463,4.278-0.926,8.556-1.389,12.834c-4.038,0.003-8.076,0.006-12.113,0.008
		c-0.278,0-0.43,0.219-0.464,0.477c-0.252,1.934-0.504,3.867-0.756,5.801c-0.034,0.258,0.236,0.477,0.464,0.477
		c4.046,0,8.092,0,12.137,0c-0.29,2.675-0.579,5.351-0.869,8.026c-4.084,0.003-8.168,0.006-12.252,0.009
		c-0.278,0-0.43,0.219-0.464,0.477c-0.252,1.934-0.504,3.867-0.756,5.801c-0.034,0.258,0.236,0.477,0.464,0.477
		c4.092,0,8.184,0,12.276,0c-0.456,4.217-0.913,8.434-1.369,12.651c-0.028,0.26,0.232,0.476,0.464,0.477
		c1.912,0.007,3.823,0.014,5.735,0.021c0.274,0.001,0.436-0.219,0.464-0.477c0.454-4.224,0.909-8.448,1.363-12.672
		c2.673,0,5.346,0,8.019,0c-0.465,4.297-0.93,8.594-1.395,12.891c-0.028,0.26,0.232,0.476,0.464,0.477
		c1.912,0.007,3.823,0.014,5.735,0.021c0.274,0.001,0.436-0.219,0.464-0.477c0.463-4.304,0.926-8.608,1.389-12.913
		c4.071,0,8.141,0,12.212,0c0.274,0,0.435-0.219,0.464-0.477c0.213-1.944,0.426-3.889,0.64-5.833
		c0.028-0.259-0.232-0.477-0.464-0.477c-4.041,0.003-8.081,0.006-12.122,0.008c0.287-2.67,0.575-5.341,0.862-8.012
		c4.12,0,8.24,0,12.36,0c0.244,0,0.387-0.159,0.432-0.347c0.015-0.04,0.027-0.082,0.032-0.13
		C1058.238,52.587,1058.451,50.643,1058.664,48.699z M1030.526,55.009c2.676,0,5.353,0,8.029,0
		c-0.289,2.672-0.578,5.344-0.868,8.016c-2.675,0.002-5.35,0.004-8.025,0.006C1029.951,60.357,1030.238,57.683,1030.526,55.009z"/>
	<g>
		<polygon fill="#EACDB0" points="1068.506,142.355 1066.722,142.807 1065.35,141.922 1065.02,142.126 1065.247,142.554
			1063.904,142.155 1062.863,142.621 1062.548,144.141 1063.23,145.586 1064.73,145.747 1066.368,144.995 1068.835,144.486 		"/>
		<path fill="#F1F1F1" d="M1066.605,142.25c2.038-0.228,3.845-0.969,5.894-1.207c0.368-0.043,0.749-0.075,1.1,0.045
			c0.744,0.254,1.125,1.1,1.303,1.886c0.724,3.202-2.714,2.448-4.604,2.311c-0.263-0.019-3.818-0.289-3.822-0.206
			C1066.477,145.075,1066.605,142.25,1066.605,142.25z"/>
	</g>
	<g>
		<polygon fill="#EACDB0" points="1042.314,144 1043.321,145.581 1044.912,145.894 1045.019,146.275 1044.569,146.429
			1045.817,147.078 1046.271,148.149 1045.496,149.483 1044.041,150.063 1042.835,149.13 1042.134,147.432 1040.663,145.33 		"/>
		<path fill="#F1F1F1" d="M1043.776,145.254c-1.342-1.595-2.175-3.404-3.519-5.014c-0.241-0.289-0.499-0.58-0.835-0.738
			c-0.713-0.335-1.552,0.017-2.202,0.468c-2.649,1.837,0.368,3.695,1.843,4.919c0.205,0.17,2.988,2.464,2.936,2.527
			C1042.001,147.413,1043.776,145.254,1043.776,145.254z"/>
	</g>
	<g>
		<g>
			<path fill="#EBCEB1" d="M1130.098,130.068c0.88-0.313,2.636-2.095,2.697-3.126c0.14-2.38-2.172-0.321-3.126,0.206
				c-0.078-0.399-0.141-0.788-0.29-1.157c-0.136-0.338-2.481,2.118-2.584,2.577c-0.247,1.102,0.349,1.476,0.913,2.357
				C1128.496,130.621,1129.301,130.351,1130.098,130.068z"/>
		</g>
		<path fill="#CBCCCE" d="M1104.194,139.317c2.282,3.025,5.637,5.655,7.619,7.555c0.675,0.647,1.441,1.33,2.363,1.35
			c0.871,0.018,1.632-0.562,2.318-1.115c6.008-4.846,9.754-10.722,14.382-16.867l-4.108-0.737l-11.451,9.128
			c-2.119-0.859-2.608-4.152-3.369-6.104c-0.397-1.018-0.804-2.054-1.484-2.899c-1.019-1.266-2.649-1.998-4.241-1.858
			c-1.592,0.14-3.094,1.168-3.794,2.646C1100.95,133.539,1102.136,136.588,1104.194,139.317z"/>
	</g>
	<g>
		<path fill="#E89F40" d="M1110.844,113.449c1.466,0.8,2.963,2.795,2.817,4.607c-0.07,0.873-0.559,1.538-0.598,2.475
			c-0.084,1.847-2.86,3.703-1.243,5.534c0.831,0.941,2.165,1.16,3.391,1.323c0.149,0.02,0.305,0.039,0.444-0.017
			c0.23-0.092,0.348-0.366,0.35-0.62c0.002-0.254-0.087-0.498-0.155-0.742c-0.712-2.553,0.55-5.468,0.76-8.042
			c0.21-2.569-0.305-5.363-2.308-7.1c-1.386,0.391-2.577,1.07-3.289,2.356L1110.844,113.449z"/>
		<path fill="#EACDB0" d="M1111.79,125.548c1.518-0.611,2.688-2.16,3.237-3.808c0.548-1.647,0.551-3.385,0.367-5.031
			c-0.614-5.479-7.057-4.164-9.174,0.42C1104.374,121.124,1107.375,127.326,1111.79,125.548z"/>
		<path fill="#E89F40" d="M1107.813,125.632c-1.11-2.598-0.508-8.032,1.554-9.904c0.716-0.65,1.534-0.768,2.446-0.775
			c0.625-0.005,0.647,0.239,1.178-0.102c0.407-0.261,0.76-1.047,0.857-1.508c0.164-0.777-0.132-1.601-0.627-2.213
			c-2.899-3.583-6.993-0.52-9.195,2.216c-1.815,2.256-3.328,4.846-4.023,7.708c-0.649,2.677-0.866,6.611-0.591,9.347
			c0.26,2.592,1.715,5.104,1.189,7.653c-0.478,2.317-2.44,3.931-4.142,5.525c-1.702,1.594-3.377,3.729-2.99,6.064
			c0.239,1.442,1.27,2.658,2.523,3.348c1.253,0.69,2.706,0.906,4.127,0.904c1.137-0.002,2.291-0.135,3.402,0.116
			c1.111,0.251,2.211,0.995,2.492,2.13c0.155,0.626,0.104,1.412,0.63,1.765c0.247,0.166,0.558,0.18,0.853,0.188
			c0.9,0.027,1.922,0.002,2.526-0.684c0.935-1.063,0.389-3.196,1.653-3.8c0.37-0.177,0.798-0.15,1.2-0.22
			c2.064-0.359,2.857-3.187,2.151-5.215c-0.706-2.029-2.344-3.534-3.583-5.271c-2.421-3.39-4.057-7.92-2.569-11.932
			c0.217-0.585,0.478-1.173,0.489-1.8c0.022-1.197-0.843-2.182-1.403-3.231C1107.908,125.843,1107.859,125.74,1107.813,125.632z"/>
	</g>
	<g>
		<polygon fill="#B99A6F" points="985.519,149.08 982.296,148.398 982.52,146.968 984.827,146.932 984.627,146.205 987.316,147.135
			987.278,148.653 		"/>
		<path fill="#FFFFF0" d="M1008.806,135.208c-1.371,0.923-2.327,2.739-3.481,4.459c-1.356,2.02-2.711,4.04-4.067,6.061l-14.75,0.778
			l0.076,3.018l17.613,3.054c2.37-2.251,4.739-4.501,7.109-6.752c1.307-1.241,3.111-2.488,4.164-3.968
			c1.55-2.177-0.03-5.604-2.313-6.664C1011.242,134.306,1009.894,134.476,1008.806,135.208z"/>
	</g>
	<g>
		<polygon fill="#E3C6AB" points="1077.185,89.343 1078.808,85.567 1080.222,86.143 1079.601,88.957 1080.409,88.869
			1078.683,91.942 1077.124,91.574 		"/>
		<polygon fill="#8C9498" points="1086.162,111.009 1076.559,107.26 1079.562,91.093 1076.424,90.544 1068.251,111.323
			1080.367,126.006 		"/>
	</g>
</g>
</svg>
