<?xml version="1.0" encoding="utf-8"?>
<!-- Generator: Adobe Illustrator 17.0.0, SVG Export Plug-In . SVG Version: 6.00 Build 0)  -->
<!DOCTYPE svg PUBLIC "-//W3C//DTD SVG 1.1//EN" "http://www.w3.org/Graphics/SVG/1.1/DTD/svg11.dtd">
<svg version="1.1" xmlns="http://www.w3.org/2000/svg" xmlns:xlink="http://www.w3.org/1999/xlink" x="0px" y="0px" width="1280px"
	 height="345px" viewBox="0 0 1280 345" enable-background="new 0 0 1280 345" xml:space="preserve">
<g id="Layer_2">
	<g opacity="0.9">
		<defs>
			<rect id="SVGID_1_" x="-2" y="-2.011" opacity="0.9" width="1280" height="347.011"/>
		</defs>
		<clipPath id="SVGID_2_">
			<use xlink:href="#SVGID_1_"  overflow="visible"/>
		</clipPath>
		<g clip-path="url(#SVGID_2_)">
			<g>
				<rect x="-29.173" y="-22.554" fill="#A80B00" width="61.911" height="17.485"/>
				<rect x="32.738" y="-22.554" fill="#A40800" width="93.069" height="17.485"/>
				<rect x="125.807" y="-22.554" fill="#EC1400" width="93.075" height="17.485"/>
				<rect x="218.882" y="-22.554" fill="#F21E00" width="93.069" height="17.485"/>
				<rect x="311.951" y="-22.554" fill="#F73200" width="93.069" height="17.485"/>
				<rect x="405.02" y="-22.554" fill="#F95E00" width="93.075" height="17.485"/>
				<rect x="498.095" y="-22.554" fill="#F96700" width="93.074" height="17.485"/>
				<rect x="591.169" y="-22.554" fill="#FEB502" width="93.069" height="17.485"/>
				<rect x="684.238" y="-22.554" fill="#FFC202" width="93.069" height="17.485"/>
				<rect x="777.307" y="-22.554" fill="#FFC802" width="93.075" height="17.485"/>
				<rect x="870.382" y="-22.554" fill="#FFD002" width="93.069" height="17.485"/>
				<rect x="963.451" y="-22.554" fill="#FFD701" width="93.069" height="17.485"/>
				<rect x="1056.52" y="-22.554" fill="#FCD801" width="93.069" height="17.485"/>
				<rect x="1149.589" y="-22.554" fill="#ECE822" width="93.074" height="17.485"/>
				<rect x="1242.663" y="-22.554" fill="#D8E830" width="69.277" height="17.485"/>
				<rect x="-29.173" y="-5.069" fill="#F62500" width="61.911" height="87.481"/>
				<rect x="32.738" y="-5.069" fill="#F62500" width="93.069" height="87.481"/>
				<rect x="125.807" y="-5.069" fill="#F63900" width="93.075" height="87.481"/>
				<rect x="218.882" y="-5.069" fill="#F84800" width="93.069" height="87.481"/>
				<rect x="311.951" y="-5.069" fill="#F75101" width="93.069" height="87.481"/>
				<rect x="405.02" y="-5.069" fill="#F64600" width="93.075" height="87.481"/>
				<rect x="498.095" y="-5.069" fill="#FF9102" width="93.074" height="87.481"/>
				<rect x="591.169" y="-5.069" fill="#FF9C02" width="93.069" height="87.481"/>
				<rect x="684.238" y="-5.069" fill="#FFA602" width="93.069" height="87.481"/>
				<rect x="777.307" y="-5.069" fill="#FFB901" width="93.075" height="87.481"/>
				<rect x="870.382" y="-5.069" fill="#FFE319" width="93.069" height="87.481"/>
				<rect x="963.451" y="-5.069" fill="#FFE719" width="93.069" height="87.481"/>
				<rect x="1056.52" y="-5.069" fill="#FFEA19" width="93.069" height="87.481"/>
				<rect x="1149.589" y="-5.069" fill="#FFEE19" width="93.074" height="87.481"/>
				<rect x="1242.663" y="-5.069" fill="#E9EA26" width="69.277" height="87.481"/>
				<rect x="-29.173" y="82.412" fill="#F84C03" width="61.911" height="87.472"/>
				<rect x="32.738" y="82.412" fill="#FA5703" width="93.069" height="87.472"/>
				<rect x="125.807" y="82.412" fill="#FA6203" width="93.075" height="87.472"/>
				<rect x="218.882" y="82.412" fill="#FB6D02" width="93.069" height="87.472"/>
				<rect x="311.951" y="82.412" fill="#FFB919" width="93.069" height="87.472"/>
				<rect x="405.02" y="82.412" fill="#FFAB10" width="93.075" height="87.472"/>
				<rect x="498.095" y="82.412" fill="#FF9E07" width="93.074" height="87.472"/>
				<rect x="591.169" y="82.412" fill="#FFC119" width="93.069" height="87.472"/>
				<rect x="684.238" y="82.412" fill="#FFC819" width="93.069" height="87.472"/>
				<rect x="777.307" y="82.412" fill="#FFCE19" width="93.075" height="87.472"/>
				<rect x="-29.173" y="169.883" fill="#FD9C1D" width="61.911" height="87.476"/>
				<rect x="32.738" y="169.883" fill="#FD9C1D" width="93.069" height="87.476"/>
				<rect x="125.807" y="169.883" fill="#FD9D1D" width="93.075" height="87.476"/>
				<rect x="218.882" y="169.883" fill="#FFB019" width="93.069" height="87.476"/>
				<rect x="311.951" y="169.883" fill="#FFF3D1" width="93.069" height="87.476"/>
				<rect x="-29.173" y="257.36" fill="#FF951A" width="61.911" height="87.481"/>
				<rect x="32.738" y="257.36" fill="#FF9E1D" width="93.069" height="87.481"/>
			</g>
			<g>
				<rect x="-29.173" y="-22.554" fill="#A80B00" width="55.108" height="20.687"/>
				<rect x="25.935" y="-22.554" fill="#A40800" width="94.429" height="20.687"/>
				<rect x="120.363" y="-22.554" fill="#EC1400" width="94.429" height="20.687"/>
				<rect x="214.792" y="-22.554" fill="#F21E00" width="94.439" height="20.687"/>
				<rect x="309.231" y="-22.554" fill="#F73200" width="94.424" height="20.687"/>
				<rect x="403.655" y="-22.554" fill="#F95E00" width="94.439" height="20.687"/>
				<rect x="498.095" y="-22.554" fill="#F96700" width="94.434" height="20.687"/>
				<rect x="592.529" y="-22.554" fill="#FEB502" width="94.429" height="20.687"/>
				<rect x="686.957" y="-22.554" fill="#FFC202" width="94.434" height="20.687"/>
				<rect x="781.392" y="-22.554" fill="#FFC802" width="94.429" height="20.687"/>
				<rect x="875.82" y="-22.554" fill="#FFD002" width="94.434" height="20.687"/>
				<rect x="970.254" y="-22.554" fill="#FFD701" width="94.434" height="20.687"/>
				<rect x="1064.688" y="-22.554" fill="#FCD801" width="94.429" height="20.687"/>
				<rect x="1159.118" y="-22.554" fill="#ECE822" width="94.434" height="20.687"/>
				<rect x="1253.552" y="-22.554" fill="#D8E830" width="58.389" height="20.687"/>
				<rect x="-29.173" y="-1.866" fill="#F62500" width="55.108" height="88.751"/>
				<rect x="25.935" y="-1.866" fill="#F62500" width="94.429" height="88.751"/>
				<rect x="120.363" y="-1.866" fill="#F63900" width="94.429" height="88.751"/>
				<rect x="214.792" y="-1.866" fill="#F84800" width="94.439" height="88.751"/>
				<rect x="309.231" y="-1.866" fill="#F75101" width="94.424" height="88.751"/>
				<rect x="403.655" y="-1.866" fill="#F64600" width="94.439" height="88.751"/>
				<rect x="498.095" y="-1.866" fill="#FF9102" width="94.434" height="88.751"/>
				<rect x="592.529" y="-1.866" fill="#FF9C02" width="94.429" height="88.751"/>
				<rect x="686.957" y="-1.866" fill="#FFA602" width="94.434" height="88.751"/>
				<rect x="781.392" y="-1.866" fill="#FFB901" width="94.429" height="88.751"/>
				<rect x="875.82" y="-1.866" fill="#FFE319" width="94.434" height="88.751"/>
				<rect x="970.254" y="-1.866" fill="#FFE719" width="94.434" height="88.751"/>
				<rect x="1064.688" y="-1.866" fill="#FFEA19" width="94.429" height="88.751"/>
				<rect x="1159.118" y="-1.866" fill="#FFEE19" width="94.434" height="88.751"/>
				<rect x="1253.552" y="-1.866" fill="#E9EA26" width="58.389" height="88.751"/>
				<rect x="-29.173" y="86.885" fill="#F84C03" width="55.108" height="88.757"/>
				<rect x="25.935" y="86.885" fill="#FA5703" width="94.429" height="88.757"/>
				<rect x="120.363" y="86.885" fill="#FA6203" width="94.429" height="88.757"/>
				<rect x="214.792" y="86.885" fill="#FB6D02" width="94.439" height="88.757"/>
				<rect x="309.231" y="86.885" fill="#FFB919" width="94.424" height="88.757"/>
				<rect x="403.655" y="86.885" fill="#FFAB10" width="94.439" height="88.757"/>
				<rect x="498.095" y="86.885" fill="#FF9E07" width="94.434" height="88.757"/>
				<rect x="592.529" y="86.885" fill="#FFC119" width="94.429" height="88.757"/>
				<rect x="686.957" y="86.885" fill="#FFC819" width="94.434" height="88.757"/>
				<rect x="781.392" y="86.885" fill="#FFCE19" width="94.429" height="88.757"/>
				<rect x="-29.173" y="175.642" fill="#FD9C1D" width="55.108" height="88.766"/>
				<rect x="25.935" y="175.642" fill="#FD9C1D" width="94.429" height="88.766"/>
				<rect x="120.363" y="175.642" fill="#FD9D1D" width="94.429" height="88.766"/>
				<rect x="214.792" y="175.642" fill="#FFB019" width="94.439" height="88.766"/>
				<rect x="309.231" y="175.642" fill="#FFF3D1" width="94.424" height="88.766"/>
				<rect x="-29.173" y="264.408" fill="#FF951A" width="55.108" height="88.747"/>
				<rect x="25.935" y="264.408" fill="#FF9E1D" width="94.429" height="88.747"/>
			</g>
		</g>
	</g>
</g>
<g id="Layer_1">
	<path opacity="0.04" fill="#272525" d="M958.194,238.487c-2.392,0.214-4.771,0.458-7.136,0.739
		c-10.752,1.277-21.002,3.792-27.719,7.668c-14.031,8.097,0.592,11.991,9.778,17.11c0.725,0.404,1.471,0.825,1.856,1.372
		c0.304,0.432,0.36,0.911,0.368,1.38c0.228,13.893-27.565,10.374-41.572,14.485c-7.931,2.327-13.438,6.646-11.099,10.688
		c5.134,8.87,32.521,9.086,48.738,9.393c73,1.38,146.197,3.02,218.792-1.634c15.656-1.004,31.222-2.271,46.811-3.452
		c7.134-0.54,16.063-1.949,16.092-5.105c0.02-2.198-4.69-3.837-9.332-4.695c-8.13-1.502-18.744-2.81-17.207-7.725
		c0.561-1.793,3.207-3.438,6.883-4.279c2.839-0.649,6.105-0.821,9.183-1.211c3.078-0.391,6.234-1.108,7.528-2.387
		c3.485-3.444-5.292-5.493-11.469-5.808c-7.399-0.376-13.432-2.797-10.881-6.449c1.777-2.544,7.56-4.265,9.318-6.811
		c0.708-1.026,0.706-2.129,0.234-3.18c-1.375-3.06-6.625-5.587-12.821-7.144c-6.197-1.557-13.301-2.271-20.336-2.835
		c-27.543-2.205-55.708-2.401-83.712-2.363c-22.379,0.03-44.757,0.205-67.125,0.525
		C994.926,237.031,976.207,236.878,958.194,238.487z"/>
	<g>
		<g>
			<path fill="#698178" d="M977.206,73.769l-57.82-4.655c-0.223-0.018-0.419,0.164-0.439,0.406l-3.539,43.771
				c-0.02,0.242,0.145,0.453,0.368,0.471l13.069,1.052l7.954,13.28c0.232,0.388,0.826,0.254,0.869-0.196l1.178-12.279l22.604,1.82
				c6.931,0.558,13.043-5.098,13.652-12.634l2.471-30.565C977.594,73.998,977.429,73.787,977.206,73.769z"/>
			<g>

					<rect x="933.313" y="79.044" transform="matrix(0.9968 0.0803 -0.0803 0.9968 9.4732 -76.0982)" fill="#FFFFF3" width="36.132" height="1.502"/>

					<rect x="925.438" y="90.183" transform="matrix(0.9968 0.0803 -0.0803 0.9968 10.353 -75.7093)" fill="#FFFFF3" width="43.095" height="1.502"/>

					<rect x="924.514" y="101.602" transform="matrix(0.9968 0.0803 -0.0803 0.9968 11.2665 -75.5989)" fill="#FFFFF3" width="43.095" height="1.502"/>
			</g>
		</g>
		<g>
			<g>
				<path fill="#59595B" d="M947.374,131.561c-0.738,2.211,0.33,4.568,1.267,6.582c0.831,1.786,1.12,2.962-0.99,3.444
					c-1.189,0.272-3.299,0.778-4.341-0.13c-0.789-0.688-0.346-2.813,0.038-3.658c0.293-0.645,1.07-0.972,1.346-1.624
					c0.114-0.269,0.13-0.568,0.134-0.859c0.017-1.192-0.149-2.386-0.488-3.529c-0.231-0.776-0.543-1.538-0.612-2.345
					c-0.101-1.169,0.728-2.532,1.163-3.606c0.81-1.999,3.63-4.68,5.991-3.111c0.538,0.357,0.851,0.961,1.112,1.55
					c0.156,0.352,0.305,0.719,0.309,1.104c0.018,1.535-1.386,1.794-2.356,2.524C948.751,128.805,947.844,130.15,947.374,131.561z"/>
				<path fill="#EACDB0" d="M951.864,140.187c-2.048-0.481-3.649-2.197-4.418-4.151c-0.769-1.954-0.81-4.121-0.597-6.209
					c0.708-6.95,9.372-6.504,12.307-1.177C961.712,133.292,957.818,141.587,951.864,140.187z"/>
				<path fill="#59595B" d="M958.538,131.921c0.088,1.086-0.483,2.295,0.115,3.207c0.267,0.406,0.714,0.65,1.092,0.956
					c1.032,0.835,1.568,2.242,1.351,3.551c2.18-0.084,4.361-0.168,6.541-0.252c0.329-0.013,0.674-0.03,0.955-0.2
					c0.601-0.364,0.633-1.207,0.594-1.908c-0.077-1.38-0.19-2.857-1.051-3.939c-0.399-0.502-0.935-0.882-1.333-1.385
					c-1.913-2.42-0.042-6.668-2.37-8.693c-1.039-0.903-2.546-0.97-3.819-1.496c-2.22-0.917-3.679-3.213-5.954-3.984
					c-4.297-1.457-8.459,3.771-5.912,7.592C950.825,128.483,958.184,127.546,958.538,131.921z"/>
			</g>
		</g>
		<g>
			<g>
				<polygon fill="#59595B" points="976.952,198.021 971.807,230.523 970.685,254.049 966.867,255.169 961.703,232.764
					956.936,192.765 				"/>
			</g>
			<polygon fill="#59595B" points="966.867,255.842 966.418,258.306 967.317,263.011 970.46,262.787 971.134,255.842
				970.685,254.721 			"/>
		</g>
		<g>
			<polygon fill="#59595B" points="943.481,205.305 951.95,263.125 955.799,263.125 958.231,231.587 963.498,200.049 			"/>
			<polygon fill="#59595B" points="952.021,262.457 947.065,265.566 947.65,267.94 956.679,266.161 955.987,262.734 			"/>
		</g>
		<g>
			<path fill="#E8CBAE" d="M961.23,140.33c0.085,0.019,0.17,0.038,0.254,0.058c4.033,0.946,7.804,6.725,9.975,10.126
				c3.072,4.811,5.108,10.182,7.218,15.456c6.272,15.671,13.412,30.634,20.916,45.757c2.506,5.05-22.012,5.77-24.443,5.931
				c-8.638,0.571-17.295,0.838-25.952,0.799c-3.95-0.018-8.026,0.209-11.858-0.681c-0.828-0.192-10.065-3.132-9.422-4.267
				c1.848-3.261,5.138-6.955,5.408-10.593c0.306-4.115,0.958-8.195,1.606-12.267c1.259-7.913,2.257-15.863,3.434-23.788
				c0.627-4.226,1.096-8.478,1.882-12.679c0.387-2.068,0.55-4.245,1.251-6.241c0.808-2.298,2.336-3.115,4.21-4.623
				c0.642-0.517,1.289-1.037,2.016-1.427C951.557,139.832,956.99,139.401,961.23,140.33z"/>
			<g>
				<polygon fill="#EBCEB1" points="974.793,113.759 973.143,109.624 971.341,110.251 971.842,113.332 970.852,113.234
					972.697,116.601 974.658,116.202 				"/>
				<polygon fill="#E8CBAE" points="957.437,141.015 974.184,135.5 971.689,115.67 975.622,115.076 983.767,137.837
					970.909,154.459 				"/>
			</g>
			<g>
				<polygon fill="#EBCEB1" points="931.026,126.322 931.8,121.938 933.692,122.187 933.828,125.306 934.777,125.009
					933.657,128.68 931.655,128.687 				"/>
				<polygon fill="#E8CBAE" points="948.007,143.032 935.882,143.032 934.454,127.564 930.482,127.78 925.554,149.753
					942.169,163.869 				"/>
			</g>
		</g>
		<g>
			<polygon fill="#B99A6F" points="959.168,182.911 954.961,181.432 955.516,179.61 958.622,179.986 958.484,179.003
				961.93,180.707 961.609,182.678 			"/>
			<path fill="#FFFFF0" d="M992.784,168.797c-0.226,0.098-0.449,0.222-0.665,0.375c-1.506,1.06-2.808,3.085-4.05,4.442
				c-2.385,2.605-4.77,5.21-7.155,7.816l-19.956-1.69l-0.436,3.945l23.118,7.206c3.179-2.214,6.358-4.429,9.537-6.643
				c2.045-1.424,4.45-2.723,6.302-4.389c2.353-2.119,1.803-5.609-0.065-8.174C997.85,169.538,995.108,167.789,992.784,168.797z"/>
		</g>
		<g>
			<polygon fill="#59595B" points="1123.141,200.614 1122.467,224.744 1116.508,265.433 1111.926,265.433 1109.031,227.889
				1103.607,195.909 			"/>
			<polygon fill="#426362" points="1111.952,267.361 1116.907,269.834 1119.385,267.361 1116.551,264.962 1112.022,265.438 			"/>
		</g>
		<g>
			<polygon fill="#59595B" points="1092.755,195.428 1092.665,213.685 1098.348,267.673 1102.931,267.673 1108.003,231.825
				1112.095,192.586 			"/>
			<polygon fill="#426362" points="1102.904,269.602 1097.949,272.074 1095.471,269.602 1098.435,267.341 1102.964,267.341 			"/>
		</g>
		<g>
			<polygon fill="#A16652" points="1014.783,258.9 1014.303,261.901 1019.837,265.86 1023.324,263.338 1020.797,259.858
				1015.263,255.899 			"/>
			<polygon fill="#2E4661" points="1019.83,166.812 1018.372,175.926 1024.229,217.358 1014.623,257.883 1020.397,260.024
				1042.188,212.431 1044.082,197.61 1043.272,166.637 			"/>
		</g>
		<g>
			<polygon fill="#2E4661" points="1057.125,170.214 1057.575,209.001 1050.25,259.01 1044.618,259.01 1041.061,212.866
				1033.354,166.721 			"/>
			<polygon fill="#A16652" points="1044.651,261.38 1050.741,264.419 1053.786,261.38 1050.741,258.341 1044.651,258.341 			"/>
		</g>
		<g>
			<g>
				<polygon fill="#363636" points="1017.626,279.379 1018.183,281.722 1014.042,285.177 1011.137,283.388 1012.929,280.489
					1017.07,277.035 				"/>
				<polygon fill="#A8C1CB" points="1007.968,206.408 1009.658,213.527 1007.471,246.62 1017.455,278.089 1013.016,280.121
					992.985,243.781 990.614,232.176 989.428,207.646 				"/>
			</g>
			<g>
				<polygon fill="#A8C1CB" points="978.688,211.287 980.62,241.973 989.359,281.073 993.811,280.742 993.902,244.058
					997.272,207.131 				"/>
				<polygon fill="#363636" points="993.925,282.617 989.29,285.377 986.704,283.153 988.932,280.573 993.746,280.215 				"/>
			</g>
		</g>
		<g>
			<g>
				<polygon fill="#363636" points="1069.975,282.253 1069.931,284.158 1065.907,285.979 1063.962,284.031 1065.995,282.168
					1070.019,280.347 				"/>
				<polygon fill="#6E6358" points="1077.561,224.865 1072.172,230.189 1068.788,255.558 1070.198,281.643 1066.233,282.315
					1057.82,250.5 1058.346,241.142 1062.51,222.122 				"/>
			</g>
			<g>
				<polygon fill="#6E6358" points="1045.386,227.196 1046.979,251.477 1054.185,282.417 1057.856,282.155 1057.931,253.127
					1060.71,223.907 				"/>
				<polygon fill="#363636" points="1057.91,282.803 1057.95,283.639 1054.128,285.823 1051.996,284.064 1053.833,282.022
					1057.802,281.739 				"/>
			</g>
		</g>
		<g>
			<path fill="#EACDB0" d="M1039.437,124.993c-1.751,0.128-3.501,0.257-5.252,0.385c-0.257-1.373-0.403-2.767-0.438-4.163
				c-1.522-0.254-3.311-0.721-3.822-2.174c-0.161-0.458-0.163-0.954-0.164-1.439c-0.002-2.005-0.004-4.01-0.007-6.016
				c-0.001-0.694,0.002-1.408,0.269-2.049c0.468-1.124,1.64-1.784,2.788-2.194c2.93-1.048,6.335-0.966,9.022,0.602
				c0.715,0.417,1.389,0.951,1.797,1.67c0.63,1.109,0.54,2.468,0.432,3.737c-0.1,1.172-0.199,2.344-0.299,3.516
				c-0.115,1.348-0.349,2.899-1.509,3.598c-0.616,0.371-1.41,0.432-1.942,0.916C1039.375,122.235,1039.791,123.776,1039.437,124.993
				z"/>
			<path fill="#3A3029" d="M1053.488,102.552c0.212-0.538,0.45-1.062,0.731-1.564c0.609-1.087,1.421-2.07,1.86-3.236
				c0.439-1.166,0.408-2.638-0.51-3.482c-0.592-0.545-1.43-0.723-2.231-0.815c-2.637-0.301-5.353,0.119-7.775,1.202
				c-2.307,1.032-4.29,2.422-6.878,1.939c-2.431-0.455-4.02,0.178-6.258,1.442c-2.422,1.368-5.85,2.186-7.961,3.89
				c-0.882,0.711-1.513,1.694-1.957,2.735c-1.538,3.607-0.771,8.078,1.883,10.968c0.595,0.648,1.272,1.218,1.971,1.753
				c1.448,1.107,3.189,2.482,4.95,2.68c-0.221-1.503-2.409-5.983-1.471-7.409c1.488-2.263,5.737-2.301,8.087-2.215
				c2.563,0.093,5.071,1.458,7.588,1.406c1.81-0.038,3.911-1.291,5.252-2.461C1052.424,107.939,1052.714,104.515,1053.488,102.552z"
				/>
		</g>
		<g>
			<polygon fill="#EACDB0" points="1065.469,112.458 1066.24,109.462 1064.811,107.137 1065.151,106.584 1065.85,106.975
				1065.218,104.706 1066,102.961 1068.498,102.456 1070.854,103.628 1071.094,106.156 1069.833,108.901 1068.956,113.047 			"/>
			<polygon fill="#B1CFDF" points="1064.29,109.265 1061.613,128.624 1039.14,123.943 1047.176,141.417 1069.46,139.108
				1070.159,110.71 			"/>
		</g>
		<g>
			<polygon fill="#EACDB0" points="1012.495,110.42 1011.914,107.363 1013.498,105.121 1013.192,104.544 1012.466,104.891
				1013.246,102.654 1012.573,100.853 1010.099,100.186 1007.657,101.211 1007.254,103.734 1008.344,106.57 1008.957,110.788 			"/>
			<polygon fill="#B1CFDF" points="1013.546,108.444 1015.177,126.444 1032.151,125.802 1025.265,143.009 1005.625,135.564
				1007.215,107.438 			"/>
		</g>
		<path fill="#B1CFDF" d="M1014.655,177.865c-0.078,3.539,0.034,8.308,1.396,8.482c0.255,0.033,0.5-0.093,0.723-0.215
			c2.356-1.283,4.023-3.09,6.345-4.33c2.434-1.3,5.218-1.99,7.949-2.474c4.083-0.744,8.257-1.206,12.417-1.279
			c4.517-0.079,13.311,0.808,13.311,0.808c2.539-0.426,4.965-1.299,7.397-2.108c4.178-1.391,8.446-2.616,12.367-4.564
			c1.258-0.625,4.729-2.472,3.489-4.144c-0.939-1.266-4.129-2.113-5.567-2.891c-3.212-1.737-6.298-3.72-9.016-6.101
			c-3.863-3.384-6.714-7.536-8.498-12.212c-0.901-2.36-1.55-4.8-2.086-7.255c-0.291-1.33-0.546-2.666-0.785-4.005
			c-0.136-0.76-0.134-3.636-0.691-4.114c-5.647-4.841-7.308-9.084-14.146-8.027c-15.602,2.41-14.496,3.101-17.977,10.73
			c-1.4,3.068-3.297,11.304-3.832,14.602c-0.648,3.994-1.248,7.996-1.715,12.013c-0.521,4.483-0.879,8.985-0.954,13.495
			C1014.771,174.78,1014.692,176.184,1014.655,177.865z"/>
		<path fill="#8C9498" d="M1116.181,141.015l-15.364-1.697c0,0-6.862,1.018-12.253,19.846c-5.391,18.828-4.042,57.134-4.042,57.134
			s38.802-5.526,44.906-6.722l-4.266-34.729L1116.181,141.015z"/>
		<path fill="#F6F6EA" d="M1005.331,167.173c2.823,0.969,5.246,2.744,6.711,6.105c1.276,2.928,1.571,6.202,1.849,9.406
			c0.791,9.174,0.642,19.171,3.356,28.046c1.18,3.858,2.383,6.177,1.795,10.463c-0.161,1.17-3.787,11.883-3.768,11.898
			c-3.598-2.737-8.116-4.247-12.64-4.225c-4.057,0.02-31.284,6.097-33.96,1.719c-0.583-0.953,4.836-13.394,5.383-15.239
			c1.793-6.056,3.587-12.112,5.399-18.162c2.004-6.716,4.027-13.46,7.028-19.796c1.015-2.143,2.14-4.235,3.368-6.264
			c0.776-1.281,2.412-5.004,3.855-5.543c1.192-0.445,3.828,0.36,5.137,0.46C1001.036,166.209,1003.24,166.456,1005.331,167.173z"/>
		<g>
			<path fill="#B99A6F" d="M1007.586,154.469c-2.258-5.999-11.231-7.764-13.018-0.619c-0.537,2.147-0.821,4.414-0.313,6.568
				c0.508,2.154,1.92,4.185,3.984,4.995c0.012,0.005,0.024,0.008,0.035,0.013c-0.057,0.566-0.114,1.133-0.171,1.7
				c-0.012,0.122-0.021,0.256,0.051,0.355c0.082,0.113,0.238,0.137,0.376,0.152c0.678,0.074,1.356,0.148,2.034,0.221
				c0.336,0.037,0.686,0.072,1.004-0.044c0.695-0.253,0.955-1.106,0.956-1.845c0-0.176-0.008-0.355-0.018-0.533
				C1006.442,163.911,1009.063,158.391,1007.586,154.469z"/>
			<g>
				<path fill="#483D3F" d="M994.462,145.016c-1.647,0-2.787,1.762-4.152,2.801c-1.135,0.864-2.511,1.253-3.709,2.007
					s-2.282,2.119-2.09,3.598c-1.399-0.482-2.909-0.965-4.323-0.47c-1.414,0.496-2.507,2.43-1.714,3.774
					c0.71,1.203,2.428,1.256,3.172,2.434c1.177,1.863-0.743,5.311,1.079,6.392c0.438,0.26,0.981,0.258,1.414,0.528
					c0.537,0.336,0.794,1.011,1.099,1.6c1.381,2.67,4.495,4.086,7.246,3.294c1.623-1.074,2.764-2.966,3.1-4.988
					c0.405-2.437-0.963-3.064-1.498-5.216c-0.585-2.352-0.201-4.991,1.029-7.067c0.8-1.351,2.047-2.598,3.507-2.958
					c0.594-0.147,0.479,0.383,1.087-0.183c0.261-0.243,0.545-1.056,0.574-1.43C998.469,148.073,996.629,145.016,994.462,145.016z"/>
				<path fill="#483D3F" d="M1012.349,145.526c0.866,0.108,1.763-0.06,2.606,0.169c1.267,0.344,1.378,1.587,1.874,2.607
					c0.549,1.129,1.328,2.64,2.248,3.445c0.663,0.58,1.509,0.842,2.273,1.252c0.764,0.411,1.508,1.073,1.631,1.999
					c0.116,0.877-0.356,1.75-0.312,2.637c0.089,1.319,0.414,1.952,0.21,3.344c-0.105,0.718-0.23,1.48-0.677,2.025
					c-0.589,0.719-1.561,0.85-2.434,0.835c-0.873-0.016-1.789-0.121-2.587,0.285c-1.731,0.882-1.117,2.67-1.373,4.283
					c-0.389,2.455-2.91,4.228-5.119,3.703c-1.873-0.445-3.201-2.342-3.422-4.375c-0.111-1.018,0.153-2.021,0.031-3.039
					c-0.117-0.981-0.871-2.253-0.099-3.16c0.188-0.221,0.45-0.362,0.613-0.606c0.131-0.197,0.184-0.444,0.203-0.685
					c0.069-0.836-0.24-1.69-0.81-2.238c-0.409-0.394-0.949-0.645-1.239-1.151c-0.332-0.579-0.249-1.325-0.309-2.01
					c-0.146-1.656-1.285-3.132-2.749-3.562c-0.965-0.284-1.815-0.41-2.699-0.928c-0.134-0.079-2.166-1.396-2.161-1.047
					c-0.008-0.607,0.263-1.18,0.545-1.71c0.463-0.871,0.994-1.732,1.741-2.324c2.416-1.913,3.07,1.604,5.122,0.824
					c0.495-0.188,0.811-0.713,1.23-1.061c0.792-0.657,1.888-0.627,2.837-0.363C1010.471,144.94,1011.374,145.405,1012.349,145.526z"
					/>
			</g>
		</g>
		<g>
			<path fill="#E3C6AB" d="M1114.167,123.171c-3.5-1.154-7.113-2.237-10.77-1.896c-0.801,0.075-1.672,0.261-2.167,0.894
				c-0.192,0.245-0.31,0.538-0.422,0.829c-1.25,3.263-2.908,8.12-1.012,11.438c0.362,0.633,0.88,1.159,1.451,1.601
				c0.762,0.591,1.628,1.029,2.542,1.308c-0.279,0.814-0.631,1.604-1.052,2.355c1.777,0.249,3.554,0.498,5.33,0.746
				c0.145-1.019,0.29-2.038,0.434-3.058c0.485-0.14,0.958-0.322,1.409-0.556c1.745-0.907,2.989-2.427,3.802-4.186
				c0.885-1.916,2.037-3.705,2.868-5.665c0.302-0.714,0.568-1.537,0.248-2.244c-0.341-0.752-1.209-1.085-1.994-1.346
				C1114.611,123.318,1114.389,123.245,1114.167,123.171z"/>
			<path fill="#514943" d="M1102.051,123.87c1.887-0.955,4.592-1.172,6.244-0.881c4.994,0.879,6.458,4.754,6.252,9.398
				c1.567-1.616,4.395-3.561,4.785-5.807c0.319-1.838,0.322-4.39-0.553-6.095c-0.819-1.596-3.222-2.672-4.612-3.691
				c-1.31-0.96-2.621-1.92-3.931-2.88c-0.272-0.2-0.553-0.403-0.878-0.495c-0.385-0.108-0.794-0.049-1.19,0.011
				c-3.383,0.513-6.766,1.025-10.148,1.538c-0.65,0.098-1.396,0.263-1.691,0.849c-0.18,0.356-0.139,0.779-0.094,1.175
				c0.199,1.745,0.738,3.564,0.738,5.311c0.098,1.025,0.169,6.236,2.013,5.824c0.611-0.801,0.798-1.845,1.3-2.718
				C1100.655,124.766,1101.286,124.257,1102.051,123.87z"/>
		</g>
		<g>
			<polygon fill="#EBCEB1" points="1127.456,190.434 1127.518,195.782 1125.229,195.909 1124.373,192.256 1123.318,192.817
				1123.823,188.233 1126.186,187.782 			"/>
			<path fill="#8C9498" d="M1111.772,147.199c-0.011,3.383,1.63,7.14,2.416,9.975c0.885,3.193,1.789,6.382,2.654,9.581
				c0.003,0.01,6.135,22.685,6.135,22.685l4.616,1.236l-0.706-26.457c-1.001-6.173-1.176-13.215-4.433-18.712
				c-0.922-1.556-2.089-3.051-3.712-3.854c-1.622-0.803-3.78-0.743-5.055,0.54C1112.279,143.607,1111.778,145.347,1111.772,147.199z
				"/>
		</g>
		<g>
			<polygon fill="#363636" points="1130.597,282.765 1130.364,285.185 1125.453,287.284 1123.348,284.703 1126.325,282.089
				1130.616,281.613 			"/>
			<polygon fill="#8C9498" points="1134.46,233.469 1130.678,281.764 1125.947,282.405 1122.031,241.243 1118.792,228.184 			"/>
		</g>
		<g>
			<polygon fill="#8C9498" points="1149.411,250.13 1140.172,278.389 1135.819,277.811 1139.083,249.234 1134.592,233.55
				1150.983,231.534 			"/>
			<polygon fill="#363636" points="1135.588,279.735 1139.968,282.822 1142.65,280.672 1140.624,277.897 1135.916,277.272 			"/>
		</g>
		<g>
			<path fill="#EACDB0" d="M1157.053,154.424c0.181-0.752,0.363-1.503,0.544-2.254c-0.366-0.576-0.731-1.151-1.097-1.727
				c0.083-0.139,0.166-0.279,0.249-0.418c0.176,0.095,0.352,0.19,0.528,0.285c-0.166-0.564-0.333-1.129-0.499-1.693
				c0.189-0.439,0.377-0.878,0.567-1.316c0.622-0.136,1.244-0.271,1.867-0.406c0.593,0.284,1.186,0.568,1.78,0.852
				c0.068,0.626,0.141,1.269,0.206,1.885c-0.276,0.789-0.646,1.255-0.901,2.12c-0.254,0.865-0.393,2.129-0.624,3.07
				C1158.802,154.701,1157.925,154.554,1157.053,154.424z"/>
			<path fill="#CBCCCE" d="M1156.133,152.044c-1.109,3.017-2.262,6.027-3.137,9.123c-0.542,1.917-0.31,6.604-3.141,5.97
				c-3.193-0.715-6.387-1.43-9.581-2.145c-0.553-0.124-1.116-0.248-1.681-0.209c-3.276,0.226-2.906,4.498-2.585,6.784
				c0.184,1.315,0.421,2.622,0.71,3.918c0.161,0.721,0.359,1.477,0.882,2c0.625,0.625,1.571,0.777,2.451,0.872
				c3.675,0.397,7.395,0.364,11.063-0.09c1.935-0.24,3.859-0.593,5.749-1.071c2.021-0.511,1.984-0.898,2.06-2.91
				c0.267-7.092,1.558-14.12,1.627-21.222C1159.077,152.722,1157.605,152.383,1156.133,152.044z"/>
		</g>
		<path fill="#F1F1F1" d="M1038.997,180.872c-5.033,8.997-5.127,19.476-3.455,29.355s0.539,20.278,3.624,29.299
			c11.055,1.332,25.11,1.919,36.262,1.517c2.716-9.146,3.455-19.44,4.378-28.847s1.964-18.007-2.158-26.757
			c-2.407-5.11-8.978-18.631-16.33-19.478C1052.232,164.916,1042.402,174.785,1038.997,180.872z"/>
		<g>
			<path fill="#EACDB0" d="M1060.421,147.218c-3.936-1.003-7.35,0.641-8.865,4.424c-2.204,5.504,1.098,11.765,5.253,13.357
				c0.057,0.614,0.114,1.228,0.17,1.842c0.012,0.126,0.027,0.261,0.112,0.355c0.075,0.083,0.189,0.117,0.298,0.143
				c1.143,0.275,2.38,0.144,3.439-0.365c-0.194-0.609-0.319-1.239-0.375-1.875c1.609-0.567,3.151-2.019,4.375-4.648
				C1067.227,155.304,1066.759,148.834,1060.421,147.218z"/>
			<g>
				<path fill="#363636" d="M1052.89,161.669c-3.332,0.417-3.981-3.086-4.117-5.624c-0.192-3.585-0.614-6.428,2.228-9.268
					c3.859-3.857,10.535-4.238,14.485-0.262c1.351,1.36,1.984,3.275,2.315,5.161c0.555,3.165,0.319,6.62-1.478,9.285
					c-1.079,1.6-3.38,3.062-3.199,0.203c0.134-2.119,2.067-3.754,1.585-6.025c-0.086-0.405-0.263-0.81-0.59-1.064
					c-0.702-0.545-1.761-0.201-2.571-0.567c-1.604-0.724-2.185-3.648-4.551-2.457c-1.197,0.603-3.738,3.709-4.24,4.952
					c-0.541,1.341-0.152,2.862,0.319,4.23C1053.419,161.232,1053.264,161.622,1052.89,161.669z"/>
				<path fill="#363636" d="M1047.62,172.483c0.001,1.872,0.157,3.755-0.099,5.61c-0.203,1.47-0.66,2.896-0.853,4.367
					c-0.318,2.43,0.115,4.953,1.224,7.139c1.739-3.64,2.97-7.522,3.645-11.499c0.657-3.87,0.788-7.808,0.918-11.731
					c0.056-1.696-0.106-9.02-2.604-4.363C1048.165,165.149,1047.618,168.963,1047.62,172.483z"/>
				<path fill="#363636" d="M1068.281,176.659c-0.25-1.856-0.655-3.701-0.648-5.574c0.005-1.483,0.269-2.958,0.264-4.441
					c-0.008-2.451-0.772-4.894-2.162-6.914c-1.24,3.838-1.943,7.849-2.083,11.88c-0.137,3.923,0.257,7.843,0.651,11.749
					c0.17,1.688,1.304,8.926,3.162,3.98C1068.717,184,1068.751,180.148,1068.281,176.659z"/>
			</g>
		</g>
		<path fill="#CBCCCE" d="M1141.005,165.475l-12.664-6.022c0,0-8.139,9.264-14.631,27.269c-6.492,18.006-1.796,52.429-1.796,52.429
			s38.651,0.767,44.682,0l-9.405-48.547L1141.005,165.475z"/>
		<g>
			<g>
				<path fill="#A16652" d="M1119.774,83.663c-2.128,2.219-5.201,3.499-8.508,3.236c-3.286-0.262-6.102-1.992-7.853-4.493
					c-10.232,3.742-13.626,17.081-14.904,33.059l40.684,3.241C1130.476,102.673,1129.481,88.947,1119.774,83.663z"/>
			</g>
			<path fill="#A16652" d="M1125.114,71.703c-0.553,6.918-6.622,12.078-13.554,11.526c-6.932-0.552-12.104-6.608-11.55-13.525
				c0.553-6.918,6.622-12.078,13.554-11.526C1120.496,58.73,1125.667,64.785,1125.114,71.703z"/>
			<g>

					<ellipse transform="matrix(0.9968 0.0794 -0.0794 0.9968 10.8958 -89.4766)" fill="#F2D042" cx="1130.508" cy="92.264" rx="7.359" ry="7.344"/>
				<polygon fill="#2E4661" points="1134.728,91.516 1131.7,91.274 1131.968,87.924 1129.757,87.748 1129.489,91.098
					1126.461,90.857 1126.288,93.012 1129.316,93.253 1129.048,96.603 1131.26,96.779 1131.528,93.429 1134.556,93.67 				"/>
			</g>
		</g>
		<g>
			<g>
				<g>
					<g>
						<g>
							<g>
								<polygon fill="#8E999E" points="982.729,197.344 977.714,203.571 948.01,180.45 953.025,174.222 								"/>
								<path fill="#2E4661" d="M989.909,207.939l-0.058,0.072c-1.582,1.964-4.076,2.614-5.571,1.45l-17.201-13.181l5.784-7.511
									l17.203,13.505C991.562,203.439,991.491,205.975,989.909,207.939z"/>
							</g>
						</g>
						<g>
							<path fill="#59595B" d="M956.162,150.681c10.502,8.175,12.257,23.194,3.92,33.546c-8.337,10.352-23.609,12.118-34.111,3.943
								c-10.502-8.175-12.257-23.194-3.92-33.546C930.388,144.272,945.66,142.507,956.162,150.681z"/>
							<path fill="#B1CFDF" d="M954.052,153.301c9.035,7.032,10.544,19.953,3.372,28.858s-20.31,10.425-29.345,3.392
								c-9.034-7.032-10.544-19.953-3.372-28.858C931.88,147.787,945.018,146.268,954.052,153.301z"/>
						</g>
					</g>
					<g>
						<g opacity="0.22">
							<path fill="#FFFFFF" d="M926.205,166.974c0.648-6.523,5.627-11.946,12.219-13.058c6.576-1.109,13.197,2.412,15.9,8.401
								c0.762,1.688,3.483,0.643,2.72-1.047c-3.111-6.895-10.371-11.08-18.006-10.331c-7.525,0.738-13.662,6.361-15.382,13.528
								c-0.166,0.693-0.269,1.4-0.339,2.108C923.134,168.41,926.022,168.822,926.205,166.974L926.205,166.974z"/>
						</g>
						<path opacity="0.31" fill="#FFFFFF" d="M958.335,165.58c0.831,0.647,0.97,1.836,0.31,2.655c-0.66,0.819-1.869,0.959-2.7,0.312
							c-0.831-0.647-0.97-1.836-0.31-2.655C956.295,165.072,957.504,164.933,958.335,165.58z"/>
					</g>
				</g>
				<path fill="#A16652" d="M967.356,196.042l5.503-7.146c0.189-0.245,0.159-0.591-0.07-0.8l-0.074-0.068
					c-0.266-0.243-0.688-0.204-0.904,0.083l-5.439,7.207c-0.204,0.27-0.143,0.651,0.135,0.845l0.01,0.007
					C966.785,196.357,967.157,196.3,967.356,196.042z"/>
				<g>
					<path fill="#6A8478" d="M961.294,171.778c-0.583,4.906-2.943,9.467-6.662,12.799c-3.672,3.289-8.469,5.148-13.417,5.296
						c-5.058,0.152-10.054-1.651-13.898-4.849c-3.743-3.115-6.225-7.561-6.989-12.318c-0.793-4.933,0.365-10.092,3.141-14.273
						c2.674-4.028,6.823-7.052,11.511-8.409c4.894-1.417,10.211-0.954,14.801,1.194c4.419,2.069,7.951,5.753,9.924,10.143
						C961.17,164.621,961.689,168.237,961.294,171.778c-0.078,0.701,1.026,0.821,1.104,0.12c0.548-4.92-0.635-9.843-3.333-14.006
						c-2.634-4.065-6.724-7.152-11.365-8.68c-4.812-1.585-10.113-1.424-14.845,0.38c-4.548,1.734-8.436,5.041-10.897,9.176
						c-2.573,4.321-3.509,9.474-2.68,14.403c0.801,4.762,3.315,9.126,6.935,12.355c3.722,3.32,8.631,5.22,13.644,5.425
						c4.97,0.203,9.895-1.338,13.892-4.246c4.828-3.512,7.955-8.96,8.65-14.805C962.482,171.198,961.378,171.078,961.294,171.778z"
						/>
				</g>
			</g>
		</g>
		<path fill="#3A6594" d="M1204.404,155.911c-4.036,0-7.527,2.369-9.151,5.787l-21.862-2.958c-0.172-3.96-1.94-7.515-4.676-10.037
			l12.36-17.826c1.447,0.614,3.039,0.955,4.708,0.955c6.654,0,12.068-5.402,12.068-12.043c0-6.64-5.414-12.043-12.068-12.043
			s-12.068,5.402-12.068,12.043c0,2.842,0.992,5.457,2.648,7.518l-12.722,18.348c-1.504-0.526-3.12-0.812-4.801-0.812
			c-8.031,0-14.565,6.52-14.565,14.534c0,8.014,6.534,14.534,14.565,14.534c6.13,0,11.386-3.798,13.533-9.16l22.058,2.984
			c0.823,4.75,4.981,8.374,9.973,8.374c5.581,0,10.121-4.531,10.121-10.1C1214.525,160.442,1209.985,155.911,1204.404,155.911z"/>
		<path fill="#F2D042" d="M1059.764,160.78l10.516,21.264c0.116,0.234,0.339,0.396,0.598,0.433l23.516,3.41
			c0.651,0.094,0.911,0.893,0.44,1.351l-17.016,16.551c-0.187,0.182-0.272,0.444-0.228,0.701l4.017,23.371
			c0.111,0.647-0.569,1.141-1.152,0.835l-21.033-11.034c-0.231-0.121-0.507-0.121-0.739,0l-21.033,11.034
			c-0.582,0.306-1.263-0.188-1.152-0.835l4.017-23.371c0.044-0.257-0.041-0.519-0.228-0.701l-17.016-16.551
			c-0.471-0.458-0.211-1.257,0.44-1.351l23.516-3.41c0.259-0.037,0.482-0.2,0.598-0.433l10.516-21.264
			C1058.632,160.191,1059.473,160.191,1059.764,160.78z"/>
		<path fill="#564A70" d="M1062.726,59.766c0.038-0.34-0.315-0.627-0.629-0.627c-5.546,0.004-11.093,0.008-16.639,0.011
			c0.617-5.557,1.233-11.114,1.85-16.671c0.037-0.336-0.314-0.633-0.629-0.627c-2.584,0.045-5.168,0.09-7.752,0.135
			c-0.372,0.006-0.59,0.283-0.629,0.627c-0.616,5.514-1.231,11.028-1.847,16.543c-3.632,0.002-7.263,0.005-10.895,0.007
			c0.629-5.667,1.258-11.334,1.886-17.001c0.037-0.336-0.314-0.633-0.629-0.627c-2.584,0.045-5.168,0.09-7.752,0.135
			c-0.372,0.006-0.59,0.283-0.629,0.627c-0.628,5.624-1.256,11.248-1.884,16.873c-5.475,0.004-10.951,0.007-16.426,0.011
			c-0.377,0-0.583,0.288-0.629,0.627c-0.342,2.542-0.684,5.084-1.025,7.627c-0.046,0.34,0.321,0.627,0.629,0.627
			c5.486,0,10.972,0,16.458,0c-0.393,3.518-0.785,7.035-1.178,10.553c-5.538,0.004-11.076,0.007-16.613,0.011
			c-0.377,0-0.583,0.288-0.629,0.627c-0.342,2.542-0.684,5.084-1.025,7.627c-0.046,0.34,0.32,0.627,0.629,0.627
			c5.549,0,11.097,0,16.646,0c-0.619,5.544-1.238,11.088-1.857,16.632c-0.038,0.341,0.315,0.626,0.629,0.627
			c2.592,0.009,5.184,0.019,7.777,0.028c0.371,0.001,0.591-0.289,0.629-0.627c0.616-5.553,1.232-11.107,1.849-16.66
			c3.625,0,7.25,0,10.874,0c-0.631,5.65-1.261,11.299-1.892,16.949c-0.038,0.341,0.315,0.626,0.629,0.627
			c2.592,0.009,5.184,0.019,7.777,0.028c0.371,0.001,0.591-0.289,0.629-0.627c0.628-5.659,1.256-11.318,1.884-16.977
			c5.52,0,11.04,0,16.56,0c0.372,0,0.59-0.288,0.629-0.627c0.289-2.556,0.578-5.112,0.867-7.669c0.038-0.34-0.315-0.627-0.629-0.627
			c-5.479,0.004-10.959,0.007-16.438,0.011c0.39-3.511,0.779-7.022,1.169-10.533c5.587,0,11.174,0,16.76,0
			c0.331,0,0.524-0.21,0.585-0.457c0.02-0.053,0.036-0.108,0.043-0.17C1062.148,64.878,1062.437,62.322,1062.726,59.766z
			 M1024.57,68.062c3.629,0,7.259,0,10.888,0c-0.392,3.513-0.785,7.026-1.177,10.539c-3.627,0.002-7.254,0.005-10.881,0.007
			C1023.79,75.093,1024.18,71.577,1024.57,68.062z"/>
		<g>
			<polygon fill="#EACDB0" points="1076.072,182.899 1073.653,183.493 1071.792,182.329 1071.345,182.597 1071.653,183.16
				1069.831,182.635 1068.42,183.248 1067.993,185.247 1068.918,187.147 1070.952,187.359 1073.172,186.37 1076.519,185.7 			"/>
			<path fill="#F1F1F1" d="M1073.495,182.76c2.764-0.3,5.214-1.274,7.992-1.587c0.499-0.056,1.015-0.099,1.491,0.059
				c1.009,0.334,1.526,1.446,1.767,2.48c0.982,4.21-3.68,3.219-6.243,3.039c-0.356-0.025-5.177-0.38-5.183-0.271
				C1073.321,186.474,1073.495,182.76,1073.495,182.76z"/>
		</g>
		<g>
			<polygon fill="#EACDB0" points="1040.555,185.062 1041.921,187.14 1044.078,187.551 1044.223,188.052 1043.613,188.255
				1045.305,189.108 1045.921,190.516 1044.87,192.27 1042.897,193.033 1041.262,191.806 1040.31,189.573 1038.317,186.809 			"/>
			<path fill="#F1F1F1" d="M1042.537,186.71c-1.819-2.097-2.949-4.476-4.771-6.592c-0.327-0.38-0.676-0.762-1.132-0.97
				c-0.967-0.441-2.104,0.022-2.986,0.615c-3.592,2.416,0.499,4.858,2.499,6.467c0.278,0.224,4.051,3.239,3.981,3.322
				C1040.131,189.549,1042.537,186.71,1042.537,186.71z"/>
		</g>
		<g>
			<g>
				<path fill="#EBCEB1" d="M1159.592,166.744c1.193-0.411,3.575-2.754,3.657-4.109c0.19-3.129-2.945-0.422-4.239,0.271
					c-0.106-0.525-0.192-1.036-0.393-1.521c-0.185-0.445-3.364,2.784-3.503,3.388c-0.335,1.449,0.474,1.941,1.238,3.099
					C1157.42,167.472,1158.511,167.116,1159.592,166.744z"/>
			</g>
			<path fill="#CBCCCE" d="M1124.466,178.904c3.095,3.977,7.643,7.435,10.332,9.933c0.916,0.851,1.954,1.749,3.205,1.775
				c1.181,0.024,2.214-0.739,3.143-1.466c8.147-6.371,13.227-14.097,19.502-22.176l-5.571-0.969l-15.528,12.001
				c-2.874-1.129-3.536-5.459-4.569-8.026c-0.538-1.339-1.091-2.701-2.013-3.811c-1.382-1.664-3.592-2.627-5.751-2.442
				c-2.158,0.184-4.195,1.536-5.144,3.479C1120.067,171.308,1121.675,175.317,1124.466,178.904z"/>
		</g>
		<g>
			<path fill="#E89F40" d="M1133.483,144.895c1.989,1.052,4.018,3.675,3.821,6.057c-0.095,1.147-0.758,2.022-0.811,3.254
				c-0.114,2.429-3.878,4.868-1.685,7.275c1.127,1.237,2.936,1.525,4.598,1.739c0.201,0.026,0.413,0.051,0.602-0.023
				c0.312-0.121,0.472-0.481,0.475-0.815c0.003-0.334-0.118-0.654-0.21-0.975c-0.966-3.356,0.746-7.189,1.031-10.573
				c0.285-3.377-0.414-7.051-3.13-9.334c-1.88,0.514-3.495,1.407-4.459,3.097L1133.483,144.895z"/>
			<path fill="#EACDB0" d="M1134.766,160.802c2.059-0.804,3.646-2.84,4.389-5.007c0.743-2.166,0.747-4.45,0.497-6.615
				c-0.832-7.204-9.569-5.475-12.44,0.552C1124.71,154.985,1128.78,163.139,1134.766,160.802z"/>
			<path fill="#E89F40" d="M1129.373,160.912c-1.505-3.415-0.689-10.56,2.108-13.021c0.971-0.854,2.08-1.009,3.317-1.018
				c0.847-0.006,0.877,0.314,1.597-0.134c0.552-0.343,1.03-1.377,1.162-1.983c0.223-1.022-0.18-2.105-0.85-2.909
				c-3.932-4.711-9.483-0.684-12.469,2.914c-2.462,2.966-4.514,6.371-5.455,10.134c-0.88,3.519-1.174,8.691-0.802,12.289
				c0.353,3.407,2.325,6.711,1.613,10.062c-0.648,3.046-3.308,5.168-5.617,7.264c-2.308,2.096-4.579,4.903-4.054,7.973
				c0.324,1.896,1.722,3.495,3.421,4.402c1.699,0.907,3.67,1.192,5.597,1.189c1.542-0.002,3.106-0.177,4.613,0.152
				c1.507,0.329,2.999,1.309,3.38,2.8c0.21,0.823,0.141,1.857,0.854,2.321c0.335,0.218,0.757,0.236,1.156,0.247
				c1.22,0.035,2.606,0.003,3.426-0.9c1.268-1.398,0.528-4.202,2.241-4.996c0.502-0.233,1.082-0.197,1.628-0.289
				c2.799-0.473,3.874-4.19,2.916-6.857c-0.958-2.667-3.178-4.646-4.859-6.929c-3.282-4.457-5.502-10.413-3.483-15.688
				c0.294-0.769,0.648-1.543,0.663-2.366c0.029-1.573-1.144-2.869-1.902-4.248C1129.503,161.191,1129.436,161.055,1129.373,160.912z
				"/>
		</g>
		<g>
			<polygon fill="#B99A6F" points="963.539,191.74 959.17,190.843 959.473,188.963 962.601,188.916 962.331,187.961
				965.976,189.183 965.926,191.18 			"/>
			<path fill="#FFFFF0" d="M995.118,173.502c-1.859,1.213-3.156,3.601-4.721,5.862c-1.838,2.656-3.676,5.312-5.515,7.968
				l-20.002,1.023l0.103,3.968l23.883,4.015c3.213-2.959,6.426-5.918,9.639-8.876c1.772-1.632,4.219-3.271,5.647-5.217
				c2.101-2.862-0.04-7.368-3.137-8.761C998.421,172.317,996.593,172.54,995.118,173.502z"/>
		</g>
		<g>
			<polygon fill="#E3C6AB" points="1087.841,113.202 1090.042,108.238 1091.959,108.995 1091.117,112.695 1092.212,112.58
				1089.872,116.62 1087.759,116.136 			"/>
			<polygon fill="#8C9498" points="1100.014,141.687 1086.991,136.758 1091.065,115.503 1086.809,114.782 1075.727,142.101
				1092.156,161.404 			"/>
		</g>
	</g>
</g>
</svg>
